<?xml version="1.0" encoding="UTF-8" standalone="no"?>
<!-- Created with Inkscape (http://www.inkscape.org/) -->

<svg
        width="48"
        height="48"
        viewBox="0 0 12.7 12.7"
        version="1.1"
        id="svg15945"
        xmlns="http://www.w3.org/2000/svg"
>
  <defs
          id="defs15942" />
  <g
          id="layer1">
    <path
            d="m 4.4235646,2.3915714 c 0.084467,0.046867 0.1909561,0.016084 0.2376436,-0.068542 C 4.9210626,1.8529834 5.3689015,1.5076177 5.8896613,1.3750669 5.9832213,1.3512909 6.0398826,1.2563294 6.0160905,1.1627759 5.9921715,1.0688659 5.8970028,1.0125705 5.8036244,1.0363467 5.1894847,1.1925081 4.6615538,1.5999482 4.3551854,2.1539309 c -0.038634,0.069768 -0.024477,0.1545848 0.029207,0.2082698 0.011307,0.011148 0.024477,0.021165 0.039176,0.029382 z m 0.2584561,0.7839362 c -0.022741,0.065404 -0.00398,0.1349969 0.041644,0.1809886 0.018171,0.018187 0.040386,0.032519 0.06628,0.041453 0.091107,0.031818 0.1907809,-0.016785 0.2224336,-0.1078925 C 5.2848234,2.5061205 5.915573,2.0192875 6.7432235,1.9547606 6.8395862,1.9472759 6.9114482,1.8633029 6.9039268,1.7667778 6.896442,1.6706062 6.812469,1.5985531 6.7159471,1.6060729 5.7433305,1.6821471 5.0022328,2.2539611 4.6820494,3.1755187 Z M 9.5395171,9.6405745 C 9.4539994,9.5961594 9.3482139,9.6295861 9.3037988,9.7152472 9.0565364,10.191939 8.6177907,10.549194 8.1001761,10.69521 c -0.092509,0.02588 -0.146893,0.122575 -0.1204892,0.215786 0.0086,0.02973 0.024318,0.05544 0.044415,0.0759 0.043348,0.04336 0.1082428,0.06243 0.1711915,0.04494 0.610117,-0.172419 1.1273797,-0.593502 1.4188852,-1.1555305 0.044606,-0.085693 0.012103,-0.1909561 -0.074673,-0.2357231 z M 9.2613027,8.8643333 C 9.2903182,8.7721748 9.2398198,8.6733756 9.1476294,8.6443473 9.0558213,8.6149656 8.9571989,8.6660373 8.9279986,8.7578454 8.676188,9.5486007 8.0580224,10.051698 7.2322956,10.138084 c -0.095996,0.01019 -0.1656017,0.09617 -0.155811,0.19218 0.00398,0.04145 0.022932,0.07816 0.050164,0.105615 0.035816,0.03585 0.087094,0.05596 0.142004,0.05036 0.9701641,-0.101427 1.696219,-0.6926555 1.992623,-1.6219065 z M 11.264077,3.5806784 C 11.425302,3.3717111 11.354658,2.9030612 10.818684,2.3672649 10.282887,1.8316422 9.8142423,1.7611705 9.6054438,1.9222241 L 8.663604,2.6475799 C 8.5413631,2.6830769 8.4208898,2.6579312 8.2704965,2.6236126 7.9907103,2.5601352 7.6427201,2.4812742 7.1833419,2.8128201 6.8995298,3.0174177 6.7727502,2.9980066 6.6499917,2.9792962 6.5754942,2.9681486 6.4824678,2.9537683 6.3798211,2.993151 6.1561644,3.0791783 6.082194,3.2843077 6.0683806,3.4329462 3.8073275,5.5103846 2.0028592,8.3553214 1.6622137,8.9084298 1.5154959,9.1455528 1.5364852,9.4344354 1.7130947,9.6110525 l 3.535e-4,3.154e-4 1.8613017,1.8616501 c 0.1767923,0.176617 0.4656749,0.197603 0.7024475,0.05107 0.418637,-0.25793 2.6036208,-1.6365938 4.5425635,-3.463446 0.3360989,-0.3172117 0.64964,-0.6335492 0.9331017,-0.9418429 0.1486288,-0.014173 0.3542804,-0.08918 0.4403194,-0.3130139 0.039,-0.1023028 0.02499,-0.195154 0.01354,-0.2699971 -0.0187,-0.1225754 -0.03793,-0.2495381 0.166477,-0.5329998 0.331723,-0.4593798 0.252685,-0.8073684 0.18921,-1.0871578 -0.0339,-0.1502054 -0.05948,-0.2706962 -0.02392,-0.3925804 z M 8.5796693,7.8056782 c -1.913762,1.8035939 -4.072514,3.1656458 -4.486082,3.4204298 -0.083065,0.05158 -0.2028474,0.06767 -0.2713953,-8.51e-4 v 0 L 1.9605399,9.3639605 C 1.8919979,9.2955945 1.9082579,9.1754521 1.9598121,9.0920397 2.1640577,8.7606626 3.9923101,5.8415818 6.2363998,3.754351 l 3.195201,3.1951995 C 9.170165,7.2305645 8.8853099,7.5175234 8.5796406,7.8057069 Z M 9.7442898,6.7678341 6.4182929,3.4418324 C 6.3964119,3.3439094 6.54262,3.2248212 6.6298799,3.3120747 c 6.689e-4,5.255e-4 3.242239,3.2420639 3.242239,3.2420639 0,0 1.943e-4,3.137e-4 0.00191,0.00207 0.087269,0.087254 -0.03185,0.233449 -0.1297576,0.2115903 z M 10.089832,5.7978372 C 10.006767,5.9130711 9.9527333,6.0131013 9.9154877,6.1029825 L 7.0831397,3.2706361 C 7.1730209,3.2332121 7.2728775,3.1793535 7.3881146,3.096293 7.719487,2.8572479 7.9387738,2.9069087 8.1932073,2.9647837 c 0.147944,0.033395 0.3130123,0.066631 0.4919035,0.034446 l 1.5017702,1.5015969 c -0.03219,0.1788897 0.0013,0.3443163 0.03464,0.4920804 0.0577,0.2542583 0.107543,0.4735435 -0.131668,0.8049191 z M 10.361054,4.1803025 9.0058245,2.8250713 9.8156374,2.2013144 c 0.059082,-0.028856 0.3593546,0.016785 0.7563046,0.4139136 0.396605,0.3966015 0.441897,0.6966763 0.415143,0.75211 z"
            style="fill:#ffffff;fill-opacity:1;stroke-width:0.174869"
            id="path24587" />
  </g>
</svg>
