<?xml version="1.0" encoding="UTF-8" standalone="no"?>
<!-- Generator: Adobe Illustrator 19.0.0, SVG Export Plug-In . SVG Version: 6.00 Build 0)  -->

<svg
   version="1.1"
   id="Layer_1"
   x="0px"
   y="0px"
   viewBox="50 50 700 700"
   style="enable-background:new 50 50 700 700;"
   xml:space="preserve"
   sodipodi:docname="brokennickandnora.svg"
   inkscape:version="1.4 (86a8ad7, 2024-10-11)"
   xmlns:inkscape="http://www.inkscape.org/namespaces/inkscape"
   xmlns:sodipodi="http://sodipodi.sourceforge.net/DTD/sodipodi-0.dtd"
   xmlns="http://www.w3.org/2000/svg"
   xmlns:svg="http://www.w3.org/2000/svg"><defs
   id="defs1" /><sodipodi:namedview
   id="namedview1"
   pagecolor="#505050"
   bordercolor="#eeeeee"
   borderopacity="1"
   inkscape:showpageshadow="0"
   inkscape:pageopacity="0"
   inkscape:pagecheckerboard="0"
   inkscape:deskcolor="#505050"
   inkscape:zoom="3.3342857"
   inkscape:cx="310.1114"
   inkscape:cy="274.27164"
   inkscape:window-width="2560"
   inkscape:window-height="1369"
   inkscape:window-x="1072"
   inkscape:window-y="799"
   inkscape:window-maximized="1"
   inkscape:current-layer="g1" />
<style
   type="text/css"
   id="style1">
	.st0{fill:#FFFFFF;}
</style>
<g
   id="g1">
	<path
   id="path13"
   class="st0"
   d="M 393.90039 146.69922 C 275.40039 146.69922 260.39961 152.89922 257.59961 157.19922 C 250.99961 164.79922 199.59961 227.19922 237.09961 280.69922 C 256.59961 308.59922 297.20039 331.99961 326.90039 349.09961 C 342.40039 358.09961 358.50039 367.3 361.40039 372 C 377.70039 398 370.30078 566.89961 367.30078 584.59961 C 365.50078 594.89961 334.10078 602.29961 313.30078 607.09961 C 286.60078 613.39961 267.30078 617.89961 267.30078 630.09961 C 267.30078 642.99961 273.1 647.09961 394 647.09961 C 514.8 647.09961 520.5 642.99961 520.5 630.09961 C 520.5 617.89961 501.2 613.39961 474.5 607.09961 C 453.7 602.19961 422.3 594.79961 420.5 584.59961 C 417.5 566.89961 410.10039 398 426.40039 372 C 429.30039 367.3 445.40039 358.09961 460.90039 349.09961 C 490.60039 331.99961 531.19922 308.59922 550.69922 280.69922 C 588.29922 227.19922 536.90078 164.79922 530.30078 157.19922 C 527.60078 152.89922 512.5 146.69922 394 146.69922 L 394 153.90039 L 393.90039 146.69922 z M 394 158 C 472.5 158 503.29961 160.9 515.09961 163 C 505.67785 164.5354 486.21485 166.31323 450.23438 167.27734 L 447.62695 172.94336 C 486.50977 171.97741 512.96168 169.92124 523.59961 166.80078 C 533.49961 179.00078 571.69922 231.40078 541.69922 274.30078 C 523.59922 300.20078 484.3 322.9 455.5 339.5 C 433.8 352 421.29961 359.39922 417.09961 366.19922 C 397.29961 397.79922 407.59922 574.19961 409.69922 586.59961 C 412.69922 604.19961 442.89922 611.29922 472.19922 618.19922 C 486.19922 621.49922 507.49922 626.49961 509.69922 630.09961 C 503.79922 636.09961 429.70039 636.09961 393.90039 636.09961 C 358.30039 636.09961 284.3 636.09922 278.5 630.69922 C 280.6 626.49922 301.90039 621.60078 315.90039 618.30078 C 345.10039 611.40078 375.40039 604.29922 378.40039 586.69922 C 380.50039 574.19922 390.8 397.90078 371 366.30078 C 366.8 359.60078 354.29961 352.19961 332.59961 339.59961 C 303.89961 322.99961 264.50039 300.30039 246.40039 274.40039 C 216.40039 231.50039 254.60039 179.00078 264.40039 166.80078 C 279.40039 171.20078 324.5 173.59961 394 173.59961 C 401.54919 173.59961 407.65498 173.46237 414.62109 173.40625 C 413.47897 171.4646 412.3928 169.57111 411.41406 167.83203 C 405.35749 167.87392 400.73137 168 394 168 C 318.3 168 286.40039 165.2 272.90039 163 C 284.70039 160.9 315.5 158 394 158 z " />
<path
   style="fill:none;fill-opacity:0.941176;stroke:#ffffff;stroke-width:6;stroke-linecap:butt;stroke-linejoin:round;stroke-miterlimit:4.9;stroke-dasharray:none;stroke-opacity:1"
   d="m 408.57201,169.55683 14.67373,21.25861 9.00551,-8.41009 6.93623,1.5422 13.82544,-14.99054"
   id="path14"
   sodipodi:nodetypes="ccccc" /><path
   style="fill:none;fill-opacity:0.941176;stroke:#ffffff;stroke-width:6;stroke-linecap:round;stroke-linejoin:round;stroke-miterlimit:5.1;stroke-dasharray:none;stroke-opacity:1"
   d="m 422.79349,189.46015 8.69751,23.09341 -32.69066,31.19108 6.2982,38.98886"
   id="path15" /><path
   style="fill:none;fill-opacity:0.941176;stroke:#ffffff;stroke-width:6;stroke-linecap:round;stroke-linejoin:round;stroke-miterlimit:5.1;stroke-dasharray:none;stroke-opacity:1"
   d="m 430.88031,212.23465 11.72538,6.60885 9.69384,5.90338"
   id="path16"
   sodipodi:nodetypes="ccc" /></g>
</svg>
