<?xml version="1.0" encoding="utf-8"?>
<!-- Generator: Adobe Illustrator 19.0.0, SVG Export Plug-In . SVG Version: 6.00 Build 0)  -->
<svg version="1.1" id="Layer_1" xmlns="http://www.w3.org/2000/svg" xmlns:xlink="http://www.w3.org/1999/xlink" x="0px" y="0px"
	 viewBox="50 50 700 700" style="enable-background:new 50 50 700 700;" xml:space="preserve">
<style type="text/css">
	.st0{fill:#FFFFFF;}
</style>
<g>
	<path class="st0" d="M394,147.8c-107.5,0-107.5,8.6-107.5,13.8l11.3,465.3l0.1,2.4l1.8,1.6c1.7,1.6,19.2,15.3,94.3,15.3
		s92.6-13.8,94.3-15.3l1.8-1.6l11.4-467.8C501.5,156.3,501.5,147.8,394,147.8L394,147.8z M484.1,163.2c-11.5,1.6-36.3,3.4-90.1,3.4
		c-53.8,0-78.7-1.9-90.1-3.4c10.6-1.9,35-4.3,90.1-4.3C449.2,159,473.5,161.4,484.1,163.2z M394,635c-57.8,0-79.2-8.4-85-11.4
		l-0.9-38.5c11.5,5.1,35.6,11,85.9,11c50.4,0,74.4-5.6,85.9-10.8l-0.9,38.3C473.2,626.6,451.7,635,394,635L394,635z M480.3,572.1
		c-2.1,1.8-17.6,12.8-86.3,12.8c-70.5,0-85.1-11.7-86.3-12.7l-9.9-404.4c17.4,3.6,60,4.4,96.1,4.4s78.7-0.8,96.1-4.4L480.3,572.1z"
		/>
</g>
</svg>
