<?xml version="1.0" encoding="utf-8"?>
<!-- Generator: Adobe Illustrator 19.0.0, SVG Export Plug-In . SVG Version: 6.00 Build 0)  -->
<svg version="1.1" id="Layer_1" xmlns="http://www.w3.org/2000/svg" xmlns:xlink="http://www.w3.org/1999/xlink" x="0px" y="0px"
	 viewBox="44 47 700 700" style="enable-background:new 44 47 700 700;" xml:space="preserve">
<style type="text/css">
	.st0{fill:#FFFFFF;}
</style>
<g>
	<path class="st0" d="M394.1,161.9L394.1,161.9c-177.9,0-177.9,8.7-177.9,14.6l0.3,25c0.9,75.2,55,139,128.6,151.6
		c13.2,2.3,15.6,3.9,15.3,3.5c16.3,26,8.9,194.9,5.9,212.6c-1.8,10.3-33.2,17.7-54,22.6c-26.7,6.3-46,10.8-46,22.9
		c0,13.7,11.6,17,124.3,17c0.8,0,1.6,0,2.5,0l2.4,0.3l0.3-0.3c114.1,0,125.8-3.3,125.8-17c0-12.2-19.3-16.7-45.9-22.9
		c-20.8-4.9-52.2-12.3-54-22.6c-3-17.7-10.4-186.6,5.4-212c0.2-0.2,2.8-1.9,15.8-4.1c73.6-12.6,127.7-76.4,128.6-151.6l0.3-25.1
		C571.8,170.7,571.8,161.9,394.1,161.9L394.1,161.9z M394.1,173.1c84.9,0,127.2,2.2,148.3,4.2c-20.6,2.6-62.7,5.4-148.4,5.4
		c-85.6,0-127.7-2.8-148.3-5.4C266.7,175.3,309,173.1,394.1,173.1L394.1,173.1z M560.3,201.4c-0.9,69.8-51.1,129-119.3,140.7
		c-16.3,2.8-20.9,5.4-22.9,8.6c-19.8,31.6-9.5,208-7.4,220.4c3,17.6,33.2,24.7,62.5,31.6c14,3.3,35.3,8.3,37.5,11.8
		c-5.9,6.1-79.7,6.1-115.9,6.1l-2.2-0.6l-0.7,0.6c-36.6,0-108.7-0.1-114.5-5.5c2.1-4.2,23.3-9.1,37.4-12.4
		c29.2-6.9,59.5-14,62.5-31.6c2.1-12.5,12.4-188.8-7.4-220.4c-2-3.3-6.6-5.8-22.9-8.6c-68.3-11.7-118.4-70.9-119.3-140.7l-0.3-21.4
		c0.2-0.1,0.6-0.1,0.9-0.2c19.1,5.5,77.7,8.6,165.7,8.6c88,0,146.6-3.1,165.7-8.6c0.3,0.1,0.7,0.1,0.9,0.2L560.3,201.4z"/>
</g>
</svg>
