<?xml version="1.0" encoding="utf-8"?>
<!-- Generator: Adobe Illustrator 19.0.0, SVG Export Plug-In . SVG Version: 6.00 Build 0)  -->
<svg version="1.1" id="Layer_1" xmlns="http://www.w3.org/2000/svg" xmlns:xlink="http://www.w3.org/1999/xlink" x="0px" y="0px"
	 viewBox="50 50 700 700" style="enable-background:new 50 50 700 700;" xml:space="preserve">
<style type="text/css">
	.st0{fill:#FFFFFF;}
</style>
<g>
	<path class="st0" d="M394,147.8c-80.7,0-80.7,10.1-80.7,14.5l0,462c0,6.6,7.9,21.9,80.7,21.9c72.9,0,80.7-15.3,80.7-21.9l0-462
		C474.7,157.9,474.7,147.8,394,147.8z M324.5,169.3c11,2,34.3,3.1,69.5,3.1s58.5-1,69.5-3.1v412c-3.5,2.4-18.6,9.7-69.5,9.7
		c-51.4,0-66.4-7.6-69.5-9.6V169.3z M461.4,164c-7.6,1.2-25.4,2.7-67.4,2.7c-41.9,0-59.8-1.5-67.4-2.7c6.2-1.9,23-5,67.4-5
		S455.2,162.1,461.4,164z M394,635c-58.2,0-68.2-9.9-69.5-11.6v-29.7c10.3,4.2,30.3,8.4,69.5,8.4c39.3,0,59.3-4.2,69.5-8.4v29.6
		C462.2,625.1,452.2,635,394,635L394,635z"/>
</g>
</svg>
