<?xml version="1.0" encoding="utf-8"?>
<!-- Generator: Adobe Illustrator 19.0.0, SVG Export Plug-In . SVG Version: 6.00 Build 0)  -->
<svg version="1.1" id="Layer_1" xmlns="http://www.w3.org/2000/svg" xmlns:xlink="http://www.w3.org/1999/xlink" x="0px" y="0px"
	 viewBox="50 50 700 700" style="enable-background:new 50 50 700 700;" xml:space="preserve">
<style type="text/css">
	.st0{fill:#FFFFFF;}
</style>
<g>
	<path class="st0" d="M453.9,609.8c-14-3.9-31.4-8.6-33.7-14.7c-11-29-6.7-153.6,1.3-173c1.5-3.7,4.7-8,8.8-13.5
		c9.6-13,24.1-32.7,33.5-68c17.2-64.5,2.8-186.3,2.2-190.9c0-4.2-0.1-13.9-72-13.9s-72,9.8-72,13.3c-0.6,5.2-15,126.9,2.2,191.5
		c9.4,35.3,23.9,55,33.5,68c4,5.5,7.2,9.8,8.8,13.5c8,19.3,12.3,144,1.3,173c-2.3,6.1-19.7,10.9-33.7,14.7
		c-21.8,6-44.3,12.2-45.1,28.5c-0.1,2.8,0.1,6.5,3.2,9.7c6.4,6.7,23.9,10.2,101.8,10.2s95.4-3.4,101.8-10.2c3.1-3.2,3.3-6.9,3.2-9.7
		C498.2,622,475.7,615.8,453.9,609.8L453.9,609.8z M450.7,151c-8.3,0.9-24.6,2-56.7,2s-48.5-1-56.7-2c7-1.7,22.6-4,56.7-4
		C428.1,147,443.8,149.3,450.7,151z M487.8,640.3c-2.8,4.5-34.4,6.8-93.8,6.8s-90.9-2.3-93.8-6.8c0,0-0.1-0.3-0.1-1.4
		c0.4-8.2,20.6-13.8,36.8-18.2c19-5.2,36.9-10.1,41.2-21.6c11.4-30.2,8.5-157.2-1.5-181.2c-2.1-5-5.6-9.8-10.1-15.9
		c-9.6-13.1-22.8-31-31.7-64.3c-14.6-54.7-5.2-156.2-2.5-181.8c10.2,1.8,30.7,2.7,61.5,2.7c30.8,0,51.3-0.9,61.5-2.7
		c2.6,24.5,12.2,126.8-2.5,181.8c-8.9,33.3-22.1,51.2-31.7,64.3c-4.5,6.1-8,10.9-10.1,15.9c-9.9,24-12.9,151-1.5,181.2
		c4.3,11.4,22.2,16.4,41.2,21.6c16.2,4.5,36.5,10,36.8,18.2C487.9,639.9,487.8,640.2,487.8,640.3L487.8,640.3z"/>
</g>
</svg>
