<?xml version="1.0" encoding="UTF-8" standalone="no"?>
<svg
   version="1.1"
   id="Layer_1"
   x="0px"
   y="0px"
   viewBox="0 0 700 700"
   xml:space="preserve"
   sodipodi:docname="hurricane.svg"
   width="700"
   height="700"
   inkscape:version="1.4 (86a8ad7, 2024-10-11)"
   xmlns:inkscape="http://www.inkscape.org/namespaces/inkscape"
   xmlns:sodipodi="http://sodipodi.sourceforge.net/DTD/sodipodi-0.dtd"
   xmlns="http://www.w3.org/2000/svg"
   xmlns:svg="http://www.w3.org/2000/svg"><defs
   id="defs1" /><sodipodi:namedview
   id="namedview1"
   pagecolor="#505050"
   bordercolor="#eeeeee"
   borderopacity="1"
   inkscape:showpageshadow="0"
   inkscape:pageopacity="0"
   inkscape:pagecheckerboard="0"
   inkscape:deskcolor="#505050"
   inkscape:zoom="1.6617009"
   inkscape:cx="369.8018"
   inkscape:cy="370.40359"
   inkscape:window-width="2560"
   inkscape:window-height="1377"
   inkscape:window-x="1072"
   inkscape:window-y="799"
   inkscape:window-maximized="1"
   inkscape:current-layer="Layer_1" />
    <style
   type="text/css"
   id="style1">
        .st0 {
            fill: #FFFFFF;
        }
    </style>
    <path
   class="st0"
   d="m 451.77121,118.08977 0.34108,-1.92214 C 452.11229,111.744 452.11229,100 350.00064,100 247.889,100 247.889,111.744 247.889,116.16763 l 0.34109,1.92214 c 0.19495,0.5252 19.39466,52.90486 22.42676,97.44979 2.7235,39.92635 -4.23953,77.41621 -10.38497,110.48785 -2.99961,16.12971 -5.83138,31.36064 -6.90887,44.33374 -2.62601,31.47977 -2.08998,62.4181 32.80632,94.77503 6.26457,5.81515 11.70611,10.59071 16.42754,14.72738 10.76398,9.44284 17.26135,15.13887 21.32762,22.30763 4.79182,8.43578 4.35867,36.43945 2.0196,40.90099 -3.72516,5.75018 -18.27927,8.19752 -31.12241,10.35248 -19.12936,3.20536 -38.90845,6.51903 -42.2546,21.70122 -0.85549,3.86595 -0.0222,7.52613 2.41486,10.55823 5.68521,7.08215 21.41968,14.31589 95.01869,14.31589 73.599,0 89.33347,-7.23374 95.01867,-14.31589 2.43652,-3.0321 3.27036,-6.69228 2.41486,-10.55823 -3.34615,-15.18219 -23.12523,-18.49586 -42.25459,-21.70122 -12.84313,-2.15496 -27.39726,-4.6023 -31.07369,-10.26586 -2.38778,-4.54816 -2.82094,-32.55183 1.96546,-40.98761 4.07168,-7.16876 10.56906,-12.86479 21.33304,-22.30763 4.72144,-4.13667 10.16298,-8.91223 16.42754,-14.72738 34.89629,-32.35693 35.43233,-63.29526 32.80631,-94.78587 -1.07749,-12.96226 -3.90924,-28.19319 -6.90887,-44.3229 -6.14542,-33.07164 -13.10845,-70.5615 -10.38498,-110.48786 3.03212,-44.50159 22.23186,-96.92457 22.42677,-97.44978 z m -16.67052,-1.46191 c -10.34436,1.5032 -33.51019,3.32449 -85.10002,3.32449 -51.58982,0 -74.75568,-1.82129 -85.10004,-3.32449 9.79479,-2.39929 32.63442,-5.53901 85.10004,-5.53901 52.46561,0 75.30524,3.13972 85.10002,5.53901 z m -6.27062,211.42997 c 2.94546,15.84276 5.72309,30.80296 6.76267,43.21295 2.47441,29.74714 1.9817,56.7329 -29.29774,85.74368 -6.18333,5.72851 -11.54366,10.42829 -16.20012,14.5108 -11.24046,9.86518 -18.66912,16.37338 -23.66669,25.16649 -6.52444,11.51119 -6.69771,44.66944 -1.67307,52.42298 6.37826,9.8327 22.02611,12.46412 38.58899,15.23634 14.78153,2.47984 31.52851,5.29536 33.26114,13.15719 0.1516,0.67143 0.0544,0.87713 -0.23287,1.2345 -2.45816,3.05376 -15.78861,10.16838 -86.37175,10.16838 -70.58314,0 -83.9136,-7.11462 -86.37177,-10.16838 -0.28698,-0.35739 -0.38445,-0.56309 -0.23287,-1.2345 1.73263,-7.86183 18.47962,-10.67735 33.26115,-13.15719 16.56288,-2.77222 32.21073,-5.40364 38.589,-15.23634 5.02462,-7.75354 4.85137,-40.91179 -1.67851,-52.42298 -4.99214,-8.79311 -12.4208,-15.30131 -23.66126,-25.16649 -4.65645,-4.08252 -10.01679,-8.78229 -16.20012,-14.5108 -31.27945,-29.01078 -31.77217,-55.99654 -29.29774,-85.73285 1.03958,-12.42082 3.8172,-27.38102 6.76267,-43.22378 5.95594,-32.05372 13.36836,-71.94759 10.55282,-113.27631 -2.49201,-36.58292 -15.03194,-76.95259 -20.5256,-93.20076 16.97236,3.16138 55.77521,3.91602 88.80218,3.91602 33.02698,0 71.82982,-0.75464 88.80219,-3.91602 -5.49368,16.24817 -18.0336,56.61784 -20.52562,93.20076 -2.81553,41.32872 4.59689,81.22259 10.55283,113.27631 z"
   id="path1"
   style="stroke-width:11.0889" />
</svg>
