<?xml version="1.0" encoding="UTF-8" standalone="no"?>
<svg
   version="1.1"
   x="0px"
   y="0px"
   viewBox="0 0 700 700"
   xml:space="preserve"
   id="svg1"
   sodipodi:docname="irish-coffee.svg"
   width="700"
   height="700"
   inkscape:version="1.4 (86a8ad7, 2024-10-11)"
   xmlns:inkscape="http://www.inkscape.org/namespaces/inkscape"
   xmlns:sodipodi="http://sodipodi.sourceforge.net/DTD/sodipodi-0.dtd"
   xmlns="http://www.w3.org/2000/svg"
   xmlns:svg="http://www.w3.org/2000/svg"><defs
   id="defs1" /><sodipodi:namedview
   id="namedview1"
   pagecolor="#505050"
   bordercolor="#eeeeee"
   borderopacity="1"
   inkscape:showpageshadow="0"
   inkscape:pageopacity="0"
   inkscape:pagecheckerboard="0"
   inkscape:deskcolor="#505050"
   inkscape:zoom="1.46875"
   inkscape:cx="194.38298"
   inkscape:cy="259.74468"
   inkscape:window-width="2560"
   inkscape:window-height="1377"
   inkscape:window-x="1072"
   inkscape:window-y="799"
   inkscape:window-maximized="1"
   inkscape:current-layer="svg1" />
    <style
   type="text/css"
   id="style1">
        .st0 {
            fill: #FFFFFF;
        }
    </style>
    <path
   class="st0"
   d="m 534.48945,187.58589 c -7.90035,-22.55591 -20.67732,-37.95775 -36.95412,-44.55854 -25.37378,-10.25502 -51.19792,0.48895 -65.51892,8.72385 0.88779,-19.21048 1.38964,-32.03891 1.38964,-32.25765 0,-5.82876 0,-19.49355 -138.03753,-19.49355 -138.03751,0 -138.03752,13.66479 -138.03752,19.73803 0.39883,10.34509 9.83042,253.71213 26.98217,300.66394 7.1412,19.53216 22.81325,29.18242 36.64531,37.7004 14.86143,9.14846 24.02276,15.38898 25.02639,27.9472 2.83073,36.00194 -21.17915,46.17977 -44.40414,56.02306 -15.36324,6.51071 -29.87726,12.66115 -30.75221,27.05936 -0.33454,5.46849 1.33817,10.19069 4.96667,14.0508 C 185.29106,593.27054 209.26234,600 295.36852,600 c 86.1062,0 110.07747,-6.72946 119.57334,-16.81721 3.6285,-3.86011 5.30122,-8.58231 4.96667,-14.0508 -0.875,-14.39821 -15.38897,-20.54865 -30.76507,-27.05936 -23.22499,-9.84329 -47.23488,-20.02112 -44.39127,-56.02306 0.99083,-12.55822 10.15209,-18.79874 25.02639,-27.9472 13.81919,-8.51798 29.49124,-18.16826 36.61956,-37.68754 0.59186,-1.58264 1.17094,-3.39689 1.73705,-5.41702 15.09304,-7.24413 83.35264,-42.5384 117.78482,-103.69541 18.52852,-32.91387 22.1313,-84.94814 8.56944,-123.71651 z M 416.89121,121.30298 c -12.16176,2.18096 -43.12064,5.21597 -121.52269,5.21597 -78.37712,0 -109.34323,-3.0326 -121.51706,-5.21356 9.88993,-3.00686 38.86487,-8.12955 121.51706,-8.12955 82.67471,0 111.64563,5.12993 121.52269,8.12714 z m 97.55141,183.54017 C 478.5822,368.5221 400.64659,403.9579 399.86169,404.31818 l -2.92081,1.29953 -0.78488,3.10096 c -0.68198,2.76642 -1.38963,5.15969 -2.12305,7.15408 -5.55856,15.24742 -18.58001,23.25072 -31.16396,31.00954 -14.59122,8.98119 -29.68424,18.27119 -31.24116,38.13789 -3.60276,45.45922 28.75783,59.17548 52.38169,69.18602 12.00494,5.08249 22.36291,9.47014 22.74892,15.72353 0.11595,1.83998 -0.28302,3.02375 -1.41538,4.22038 -11.91487,12.67402 -85.72016,12.67402 -109.97452,12.67402 -24.25436,0 -98.05965,0 -109.97453,-12.67402 -1.13233,-1.19663 -1.53118,-2.3804 -1.41537,-4.22038 0.38605,-6.25339 10.74397,-10.64105 22.7489,-15.73639 23.62388,-9.99768 55.9716,-23.71394 52.3817,-69.17316 -1.56977,-19.8667 -16.64994,-29.1567 -31.24115,-38.13788 -12.59683,-7.75883 -25.6054,-15.77499 -31.17682,-31.00955 -14.7995,-40.49416 -24.07905,-246.00237 -25.86676,-288.55446 23.72279,4.94094 85.54405,5.78856 124.54403,5.78856 38.99997,0 100.8132,-0.84762 124.53277,-5.78856 -0.32887,7.87221 -0.89674,20.89445 -1.65262,36.73377 l -0.69476,14.48829 11.37445,-9.00693 c 0.33454,-0.27024 33.81456,-26.41602 63.66609,-14.28241 15.99373,6.47211 24.84624,23.52094 29.45263,36.68391 12.22367,34.94686 8.95546,83.4813 -7.60441,112.90821 z M 475.13383,172.69873 c -32.81092,-5.53282 -56.98808,29.68425 -58.01744,31.17682 l -1.04221,1.5183 -0.10277,1.84 c -2.13594,38.53675 -5.7387,94.36681 -10.70537,141.38295 l -0.9264,8.7367 8.64665,-1.55691 c 3.06235,-0.55325 75.2078,-14.33386 92.97718,-80.59908 4.04024,-15.11876 10.9241,-59.97324 -5.6615,-85.6687 -6.07324,-9.41867 -14.53974,-15.09303 -25.16791,-16.83008 z m 18.09105,99.07614 c -12.14648,45.35629 -55.23817,63.12567 -73.89536,68.80003 4.42625,-44.35266 7.66875,-94.63702 9.68887,-130.66471 4.43912,-5.84164 22.82612,-27.67699 43.97952,-24.21576 6.89672,1.13233 12.19794,4.72221 16.2382,10.97558 11.76046,18.21973 9.41865,54.89077 3.98877,75.10486 z"
   id="path1"
   style="stroke-width:13.1758" />
</svg>
