<?xml version="1.0" encoding="UTF-8" standalone="no"?>
<svg
   version="1.1"
   viewBox="-5 -10 700 700"
   id="svg1"
   sodipodi:docname="julep.svg"
   width="700"
   height="700"
   inkscape:version="1.4 (86a8ad7, 2024-10-11)"
   xmlns:inkscape="http://www.inkscape.org/namespaces/inkscape"
   xmlns:sodipodi="http://sodipodi.sourceforge.net/DTD/sodipodi-0.dtd"
   xmlns="http://www.w3.org/2000/svg"
   xmlns:svg="http://www.w3.org/2000/svg">
  <defs
     id="defs1" />
  <sodipodi:namedview
     id="namedview1"
     pagecolor="#505050"
     bordercolor="#eeeeee"
     borderopacity="1"
     inkscape:showpageshadow="0"
     inkscape:pageopacity="0"
     inkscape:pagecheckerboard="0"
     inkscape:deskcolor="#505050"
     inkscape:zoom="0.76930599"
     inkscape:cx="170.93328"
     inkscape:cy="415.30939"
     inkscape:window-width="2560"
     inkscape:window-height="1377"
     inkscape:window-x="1072"
     inkscape:window-y="799"
     inkscape:window-maximized="1"
     inkscape:current-layer="svg1" />
  <style
     type="text/css"
     id="style1">
        .st0 {
            fill: #FFFFFF;
        }
    </style>
  <path
     class="st0"
     d="M 523.35907,125.77768 C 523.084,113.44654 522.87776,104.55375 506.26059,98.136465 501.05775,96.142453 485.17396,90 345.93696,90 c -93.6512,0 -148.27177,2.72745 -162.24816,8.136465 -16.63965,6.417875 -16.8233,15.333545 -17.09849,27.641215 l -0.0458,1.23769 c -0.32089,13.8209 8.4803,21.84295 13.22477,25.11995 l 41.85171,342.12817 c -9.1222,6.64671 -33.69237,26.49529 -29.26886,44.41875 5.75291,23.30983 28.30601,47.62769 152.14433,51.31776 h 0.0688 c 126.70283,0 149.27511,-35.89268 153.08312,-51.31776 4.42357,-17.92346 -20.14665,-37.77204 -29.26886,-44.41875 l 41.85172,-342.12817 c 4.72152,-3.27753 13.54572,-11.29964 13.22476,-25.11995 l -0.0458,-1.23769 z m -27.34373,-18.22153 c -5.70708,2.4295 -32.06472,7.05919 -151.11165,4.60693 -118.95186,2.45244 -145.26761,-2.15449 -150.99429,-4.58399 14.00397,-2.65868 51.63871,-5.82167 152.00351,-5.82167 98.92021,0 136.19058,3.16293 150.10243,5.82167 z m 1.39811,52.39503 c -5.36325,3.32342 -33.3943,15.5395 -152.55505,12.65151 -106.41889,2.13155 -143.61885,-9.85564 -152.4377,-13.54571 l -0.96263,-7.93052 c 17.44233,5.68414 58.26254,12.37691 153.49386,10.84138 9.48892,0.13754 18.47324,0.22919 26.90777,0.22919 76.45942,0 111.0014,-5.95904 126.6559,-11.11598 l -1.07721,8.84702 z m -1.65024,13.38495 -39.3991,322.41336 c -0.0688,0.22919 -8.57183,23.01176 -111.41213,23.01176 -102.06519,0 -111.20676,-22.4385 -111.32411,-22.4385 v 0.0229 L 193.97646,172.09574 c 16.96061,5.45496 58.67502,14.07262 150.83588,12.26191 12.17037,0.29795 23.42424,0.41254 33.87543,0.41254 70.18119,0 102.3351,-6.1198 117.07427,-11.43694 z m -9.55757,362.52361 c -1.76483,7.08207 -16.8233,42.40209 -141.53002,42.40209 h -0.0458 c -131.40267,-3.91932 -138.29698,-31.88166 -140.91389,-42.40209 -1.97113,-7.9534 10.61197,-21.29258 22.32409,-30.27749 8.57183,9.94718 35.34231,24.914 118.93426,24.914 83.49455,0 110.29143,-14.94394 118.9108,-24.93688 11.68923,8.98432 24.31786,22.34697 22.34696,30.30037 z m 15.88333,-392.48308 -2.81916,1.42106 v 0.0458 c -13.38495,5.01946 -51.01969,12.99533 -154.34464,11.25386 -103.27977,1.69606 -140.89046,-6.23422 -154.25076,-11.25387 v -0.0458 l -2.81916,-1.42105 c -0.0917,-0.0458 -9.83276,-5.01947 -9.58046,-16.08986 l 0.0229,-1.23769 c 0.27501,-11.55194 0.36672,-13.29342 8.98432,-16.70889 1.28352,3.91932 10.29102,9.39739 96.08035,9.39739 17.23579,0 37.56551,-0.22918 61.56183,-0.71049 143.36654,2.95669 156.22224,-3.94226 157.75953,-8.66396 8.59471,3.39212 8.68683,5.15701 8.96143,16.68601 l 0.0229,1.23769 c 0.25212,10.86426 -9.21374,15.90621 -9.58046,16.08986 z"
     id="path1"
     style="stroke-width:5.8675" />
</svg>
