<?xml version="1.0" encoding="utf-8"?>
<!-- Generator: Adobe Illustrator 19.0.0, SVG Export Plug-In . SVG Version: 6.00 Build 0)  -->
<svg version="1.1" id="Layer_1" xmlns="http://www.w3.org/2000/svg" xmlns:xlink="http://www.w3.org/1999/xlink" x="0px" y="0px"
	 viewBox="-255 334 100 125" style="enable-background:new -255 334 100 125;" xml:space="preserve">
<style type="text/css">
	.st0{fill:#FFFFFF;}
</style>
<path class="st0" d="M-161.8,390.6c-0.6-9.3-2.5-16.6-3.4-19.8c1.4-0.7,2.4-2.1,2.4-3.8c0-2.3-1.9-4.1-4.1-4.1h-38.6h-2.5h-1.5h-2.5
	h-7.1c-2.3,0-4.1,1.9-4.1,4.1c0,2.1,1.6,3.8,3.6,4.1c-0.4,1-0.8,2.3-1.3,3.8c-2.1-0.9-5-1.2-7.2-1.2c-11.1,0-20.2,9-20.2,20.2
	c0,5,1.8,9.8,5.2,13.5c1,1.1,2.1,2.1,3.3,2.9c0.7,0.5,23,16.8,25.4,18.5c0.5,0.7,1,1.5,1.6,2.2c0.3,0.4,0.7,0.6,1.2,0.6h38.8
	c0.5,0,0.9-0.2,1.2-0.6C-164.2,420.7-160.7,406.7-161.8,390.6z M-220.3,367.1c0-0.6,0.5-1.1,1.1-1.1h7.3h2.5h1.5h2.5h38.4
	c0.6,0,1.1,0.5,1.1,1.1s-0.5,1.1-1.1,1.1h-0.2h-38h-2.5h-1.5h-2.5h-5.9h-1.6C-219.8,368.2-220.3,367.7-220.3,367.1z M-221.7,413.9
	l-12.6-9.3c-0.2-0.2-0.5-0.4-0.8-0.5c-0.1-0.1-0.1-0.1-0.2-0.2c-0.7-0.5-1.4-1.1-2-1.8c-2-2.2-3.1-5.1-3.1-8.1
	c0-6.7,5.5-12.2,12.2-12.2c1.6,0,3.6,0.4,5.3,1.1C-224.6,391.1-225.2,402.3-221.7,413.9z M-238.1,407.9c-1-0.7-2-1.6-2.8-2.5
	c-2.8-3.2-4.4-7.2-4.4-11.5c0-9.5,7.7-17.2,17.2-17.2c2.3,0,4.5,0.4,5.9,0.9l-0.3,2.1c-1.8-0.6-3.9-1-5.6-1
	c-8.4,0-15.2,6.8-15.2,15.2c0,3.8,1.4,7.4,3.9,10.1c0.7,0.7,1.4,1.4,2.2,2c0.1,0.1,0.2,0.2,0.4,0.3c0.3,0.2,0.6,0.4,0.9,0.6l16.2,12
	c0.5,1.1,1,2.3,1.5,3.4C-225.7,417-237.6,408.3-238.1,407.9z M-173.7,428.7H-211c-17.7-24.3-7.7-52.2-5.6-57.5h5.1h2.5h1.5h2.5h36.8
	C-166.5,377.1-158.7,407.3-173.7,428.7z"/>
</svg>
