<?xml version="1.0" encoding="UTF-8" standalone="no"?>
<!-- Generator: Adobe Illustrator 19.0.0, SVG Export Plug-In . SVG Version: 6.00 Build 0)  -->

<svg
   version="1.1"
   id="Layer_1"
   x="0px"
   y="0px"
   viewBox="44 47 700 700"
   style="enable-background:new 44 47 700 700;"
   xml:space="preserve"
   sodipodi:docname="mule.svg"
   inkscape:version="1.2.2 (732a01da63, 2022-12-09)"
   xmlns:inkscape="http://www.inkscape.org/namespaces/inkscape"
   xmlns:sodipodi="http://sodipodi.sourceforge.net/DTD/sodipodi-0.dtd"
   xmlns="http://www.w3.org/2000/svg"
   xmlns:svg="http://www.w3.org/2000/svg"><defs
   id="defs29" /><sodipodi:namedview
   id="namedview27"
   pagecolor="#000000"
   bordercolor="#000000"
   borderopacity="0.25"
   inkscape:showpageshadow="2"
   inkscape:pageopacity="0"
   inkscape:pagecheckerboard="0"
   inkscape:deskcolor="#d1d1d1"
   showgrid="false"
   inkscape:zoom="1.4671429"
   inkscape:cx="345.91042"
   inkscape:cy="350.3408"
   inkscape:window-width="2560"
   inkscape:window-height="1377"
   inkscape:window-x="-8"
   inkscape:window-y="-8"
   inkscape:window-maximized="1"
   inkscape:current-layer="Layer_1" />
<style
   type="text/css"
   id="style2">
	.st0{fill:#FFFFFF;}
</style>

<path
   class="st0"
   d="m 641.51317,358.85553 c -3.4416,-53.3449 -14.34003,-95.21778 -19.50243,-113.57302 8.03041,-4.0152 13.76642,-12.04562 13.76642,-21.79683 0,-13.19283 -10.89842,-23.51764 -23.51765,-23.51764 h -221.41 -14.34002 -8.60402 -14.34002 -40.72569 c -13.19281,0 -23.51763,10.89842 -23.51763,23.51764 0,12.04562 9.17762,21.79683 20.64963,23.51765 -2.29441,5.736 -4.5888,13.19281 -7.45681,21.79684 -12.04562,-5.16242 -28.68006,-6.88322 -41.29928,-6.88322 -63.66971,0 -115.86741,51.62409 -115.86741,115.86742 0,28.68005 10.32482,56.21289 29.82725,77.43613 5.73601,6.30962 12.04563,12.04563 18.92884,16.63443 4.0152,2.868 131.92824,96.36498 145.69466,106.1162 2.86801,4.0152 5.73602,8.60401 9.17762,12.61921 1.7208,2.29441 4.01521,3.44162 6.88321,3.44162 h 222.55721 c 2.868,0 5.16241,-1.14721 6.88321,-3.44162 42.44648,-59.08089 62.52252,-139.38505 56.21291,-231.73481 z M 305.95655,224.05929 c 0,-3.44162 2.86801,-6.30962 6.30962,-6.30962 h 41.87287 14.34003 8.60402 14.34003 220.26279 c 3.44162,0 6.30962,2.868 6.30962,6.30962 0,3.44159 -2.868,6.3096 -6.30962,6.3096 h -1.1472 -217.9684 -14.34002 -8.60402 -14.34002 -33.84246 -9.17762 c -3.44161,0 -6.30962,-2.86801 -6.30962,-6.3096 z m -8.03041,268.44529 -72.27373,-53.34491 c -1.1472,-1.1472 -2.86801,-2.29441 -4.58881,-2.868 -0.5736,-0.5736 -0.5736,-0.5736 -1.14721,-1.14721 -4.01521,-2.868 -8.03041,-6.30961 -11.47201,-10.32482 -11.47203,-12.61922 -17.78163,-29.25364 -17.78163,-46.46168 0,-38.43127 31.54805,-69.97933 69.97933,-69.97933 9.1776,0 20.64963,2.29441 30.40085,6.30962 -9.75122,47.03529 -13.19283,111.2786 6.88321,177.81633 z m -94.07058,-34.41607 c -5.73601,-4.01521 -11.47201,-9.17762 -16.06082,-14.34002 -16.06083,-18.35524 -25.23845,-41.29928 -25.23845,-65.96412 0,-54.49211 44.16729,-98.65939 98.65938,-98.65939 13.19283,0 25.81205,2.2944 33.84246,5.16241 l -1.7208,12.04562 c -10.32482,-3.4416 -22.37044,-5.73601 -32.12166,-5.73601 -48.18249,0 -87.18736,39.00488 -87.18736,87.18737 0,21.79683 8.03041,42.44647 22.37045,57.9337 4.0152,4.01521 8.03041,8.03042 12.61921,11.47202 0.57361,0.57359 1.14721,1.1472 2.29441,1.7208 1.7208,1.1472 3.44161,2.2944 5.16241,3.44161 l 92.92337,68.83212 c 2.86801,6.30962 5.73601,13.19283 8.60401,19.50243 C 274.9821,510.28621 206.72358,460.38291 203.85556,458.08851 Z M 573.25464,577.39753 H 359.30146 C 257.77406,438.01247 315.13417,277.97778 327.17979,247.57692 h 29.25366 14.34002 8.60402 14.34002 211.08519 c 9.75122,33.84246 54.4921,207.06999 -31.54806,329.82061 z"
   id="path137"
   style="fill:#ffffff;stroke-width:5.73601" /></svg>
