<?xml version="1.0" encoding="utf-8"?>
<!-- Generator: Adobe Illustrator 19.0.0, SVG Export Plug-In . SVG Version: 6.00 Build 0)  -->
<svg version="1.1" id="Layer_1" xmlns="http://www.w3.org/2000/svg" xmlns:xlink="http://www.w3.org/1999/xlink" x="0px" y="0px"
	 viewBox="50 50 700 700" style="enable-background:new 50 50 700 700;" xml:space="preserve">
<style type="text/css">
	.st0{fill:#FFFFFF;}
</style>
<g>
	<path class="st0" d="M530.3,157.2c-2.7-4.3-17.8-10.5-136.3-10.5v7.2l-0.1-7.2h0c-118.5,0-133.5,6.2-136.3,10.5
		c-6.6,7.6-58,70-20.5,123.5c19.5,27.9,60.1,51.3,89.8,68.4c15.5,9,31.6,18.2,34.5,22.9c16.3,26,8.9,194.9,5.9,212.6
		c-1.8,10.3-33.2,17.7-54,22.5c-26.7,6.3-46,10.8-46,23c0,12.9,5.8,17,126.7,17c120.8,0,126.5-4.1,126.5-17c0-12.2-19.3-16.7-46-23
		c-20.8-4.9-52.2-12.3-54-22.5c-3-17.7-10.4-186.6,5.9-212.6c2.9-4.7,19-13.9,34.5-22.9c29.7-17.1,70.3-40.5,89.8-68.4
		C588.3,227.2,536.9,164.8,530.3,157.2L530.3,157.2z M394,158L394,158c78.5,0,109.3,2.9,121.1,5c-13.5,2.2-45.4,5-121.1,5
		c-75.7,0-107.6-2.8-121.1-5C284.7,160.9,315.5,158,394,158L394,158z M541.7,274.3c-18.1,25.9-57.4,48.6-86.2,65.2
		c-21.7,12.5-34.2,19.9-38.4,26.7c-19.8,31.6-9.5,208-7.4,220.4c3,17.6,33.2,24.7,62.5,31.6c14,3.3,35.3,8.3,37.5,11.9
		c-5.9,6-80,6-115.8,6c-35.6,0-109.6,0-115.4-5.4c2.1-4.2,23.4-9.1,37.4-12.4c29.2-6.9,59.5-14,62.5-31.6
		c2.1-12.5,12.4-188.8-7.4-220.4c-4.2-6.7-16.7-14.1-38.4-26.7c-28.7-16.6-68.1-39.3-86.2-65.2c-30-42.9,8.2-95.4,18-107.6
		c15,4.4,60.1,6.8,129.6,6.8s114.6-2.4,129.6-6.8C533.5,179,571.7,231.4,541.7,274.3L541.7,274.3z"/>
</g>
</svg>
