<?xml version="1.0" encoding="utf-8"?>
<!-- Generator: Adobe Illustrator 19.0.0, SVG Export Plug-In . SVG Version: 6.00 Build 0)  -->
<svg version="1.1" id="Layer_1" xmlns="http://www.w3.org/2000/svg" xmlns:xlink="http://www.w3.org/1999/xlink" x="0px" y="0px"
	 viewBox="50 50 700 700" style="enable-background:new 50 50 700 700;" xml:space="preserve">
<style type="text/css">
	.st0{fill:#FFFFFF;}
</style>
<g>
	<path class="st0" d="M490.2,301.4c10.5-96.5,8-134,7.9-135c0-1.1-0.3-3.3-2.4-5.5c-8.5-8.8-42.8-13.2-101.7-13.2
		s-93.1,4.4-101.7,13.2c-2.2,2.2-2.5,4.4-2.4,4.9c-0.1,1.5-2.6,39.1,7.9,135.5c3.2,29.1,8.8,58.8,14.3,87.6
		c9.9,51.7,19.2,100.6,15,145.3c-3.1,33-14.8,61.1-21.6,75c-2.4,5-2.6,10.9-0.5,16c2.1,5.1,6.3,9.1,11.6,10.9
		c19.6,6.7,45,10,77.4,10s57.8-3.3,77.4-10c5.2-1.8,9.4-5.8,11.6-10.9c2.1-5.2,2-11-0.5-16c-6.7-13.8-18.5-42-21.5-75
		c-4.2-44.7,5.1-93.6,15-145.3C481.4,360.3,487.1,330.5,490.2,301.4L490.2,301.4z M486.3,167.9c-7.9,1.6-30.1,4.2-92.3,4.2
		c-62.3,0-84.5-2.6-92.3-4.2c4.6-2.4,23.3-8.9,92.3-8.9C463,159,481.7,165.4,486.3,167.9z M472.6,621.1c-0.9,2.2-2.6,3.8-4.8,4.6
		c-18.2,6.2-43,9.4-73.8,9.4c-30.8,0-55.6-3.2-73.8-9.4c-2.2-0.8-3.9-2.4-4.9-4.6c-0.9-2.2-0.8-4.7,0.2-6.8
		c2.6-5.3,5.9-12.7,9.2-21.6c9,4.3,28.1,9.2,69.3,9.2c41.1,0,60.3-4.8,69.3-9.2c3.3,8.9,6.6,16.2,9.2,21.5
		C473.5,616.4,473.5,618.9,472.6,621.1L472.6,621.1z M449.8,535.4c1.6,17.2,5.5,33.2,9.8,46.6c-4.7,2.6-20.3,8.7-65.6,8.7
		c-45.5,0-61.2-6.2-65.6-8.6c4.3-13.5,8.2-29.5,9.8-46.7c4.3-46.3-5.1-95.9-15.1-148.5c-5.4-28.5-11.1-58-14.2-86.7
		c-7.9-72.6-8.3-111.9-8.1-126.9c16.8,3.5,58.1,4.3,93.2,4.3c35.1,0,76.4-0.8,93.2-4.3c0.3,14.5-0.1,53.8-8.1,126.9
		c-3.1,28.7-8.8,58.2-14.2,86.7C454.9,439.5,445.5,489.1,449.8,535.4L449.8,535.4z"/>
</g>
</svg>
