<?xml version="1.0" encoding="utf-8"?>
<!-- Generator: Adobe Illustrator 19.0.0, SVG Export Plug-In . SVG Version: 6.00 Build 0)  -->
<svg version="1.1" id="Layer_1" xmlns="http://www.w3.org/2000/svg" xmlns:xlink="http://www.w3.org/1999/xlink" x="0px" y="0px"
	 viewBox="50 50 700 700" style="enable-background:new 50 50 700 700;" xml:space="preserve">
<style type="text/css">
	.st0{fill:#FFFFFF;}
</style>
<g>
	<path class="st0" d="M576.5,243.2c-12.2-12.3-28.5-19.1-45.8-19.1H518l0.9-12.6c0-5.4,0-16.6-143-16.6l-9.3,0.1
		c-4,0-7.9,0.1-11.6,0c-8.2-0.1-21.3-6.8-35.1-14c-33.7-17.3-79.7-41.1-121.1-7.5c-4.9,3.9-5.9,8.3-6,11.3
		c-0.2,9.4,9.5,17.9,18.8,26c1.9,1.7,3.9,3.4,5.6,5c16.1,14.9,17.6,36.9,19.3,60.3l0.2,3c4.6,63.8,15.7,219.7,19.3,288.5
		c0.5,10-1.8,41.4-1.9,42.3c0.2,8.2,12.4,27.4,121.8,27.4c109.4,0,121.6-19.2,121.8-28c0-0.3-2.4-31.7-1.9-41.7
		c0.7-12.2,1.6-27.5,2.6-44.8l61.8-18.3c20.1-6,33.7-24,33.8-45l1.2-170.4C595.4,271.8,588.7,255.5,576.5,243.2L576.5,243.2z
		 M375.9,626.2c-93.9,0-108.7-14.6-110.5-17.1c0.2-2.7,0.7-9.7,1.1-17.4c12.3,5.2,41.3,11.9,109.4,11.9c68.1,0,97.1-6.7,109.4-11.8
		c0.4,7.7,0.9,14.6,1.1,17.4C484.6,611.5,469.7,626.2,375.9,626.2L375.9,626.2z M582.8,459.4c-0.1,16-10.5,29.8-25.8,34.3
		l-69.3,20.6l-0.2,3.9c-1.2,18.9-2.1,35.6-2.8,48.8c-0.2,2.9-0.1,7.5,0.1,12.4c-2.9,2.1-22.1,12.8-108.8,12.8
		c-88.4,0-106.8-11.3-108.8-12.7c0.2-5,0.3-9.6,0.1-12.5c-3.6-66.5-13.6-209.4-19.3-288.7l-0.2-3c-1.7-24.5-3.5-49.8-22.8-67.7
		c-1.8-1.7-3.9-3.5-5.9-5.2c-6.3-5.5-15-13.1-14.9-17.4c0-0.3,0-1.3,1.9-2.8c35.6-29,76.3-8,108.9,8.8c15.7,8.1,29.3,15.1,40.1,15.2
		c3.8,0,7.8,0,11.9,0l9.2-0.1c100,0,125.5,5.9,131.6,8.2l-1.4,21h24.7c14.3,0,27.8,5.6,37.9,15.8c10.1,10.2,15.6,23.6,15.5,38
		L582.8,459.4z M519.5,261.5h-15.3l-0.4,5.2c-3.7,55-9.5,141.1-14,211.6l-0.5,8l57.6-17.1c9.8-2.9,16.4-11.7,16.5-22l1-140.5
		c0.1-12.1-4.6-23.5-13.1-32.1C543,266.3,531.6,261.5,519.5,261.5L519.5,261.5z M552.4,447.3c0,5.3-3.5,9.8-8.5,11.3l-42.2,12.5
		c4.2-66.8,9.5-145.4,13.1-198.4h4.8c9.1,0,17.6,3.6,24,10c6.4,6.4,9.9,15,9.8,24.1L552.4,447.3z"/>
</g>
</svg>
