<?xml version="1.0" encoding="utf-8"?>
<!-- Generator: Adobe Illustrator 19.0.0, SVG Export Plug-In . SVG Version: 6.00 Build 0)  -->
<svg version="1.1" id="Layer_1" xmlns="http://www.w3.org/2000/svg" xmlns:xlink="http://www.w3.org/1999/xlink" x="0px" y="0px"
	 viewBox="50 50 700 700" style="enable-background:new 50 50 700 700;" xml:space="preserve">
<style type="text/css">
	.st0{fill:#FFFFFF;}
</style>
<g>
	<path class="st0" d="M547.5,215.8c0-5.7,0-13.5-153.5-13.5c-153.5,0-153.5,7.8-153.5,13.5l0.1,348.1c0,8.4,15,27.8,153.5,27.8
		c138.6,0,153.5-19.4,153.5-27.8L547.5,215.8z M251.6,222.3c16.6,4.8,66,7.3,142.3,7.3c76.3,0,125.7-2.6,142.3-7.3l0.1,262.1
		c-5.7,4-33.3,17.7-142.3,17.7c-108.6,0-137-14.2-142.4-17.7L251.6,222.3z M529.4,218.2c-13.6,2.5-48.1,5.8-135.4,5.8
		c-87.3,0-121.8-3.4-135.4-5.8c14.2-2,49.3-4.7,135.4-4.7S515.2,216.2,529.4,218.2L529.4,218.2z M394.1,580.5
		c-121.8,0-140.1-15-142.3-17.7l0-65.7c15.3,7,52.5,16.3,142.4,16.3c89.7,0,126.9-9.2,142.3-16.2l0,65.6
		C534.1,565.4,515.8,580.5,394.1,580.5L394.1,580.5z"/>
</g>
</svg>
