<?xml version="1.0" encoding="UTF-8" standalone="no"?>
<svg
   version="1.1"
   x="0px"
   y="0px"
   viewBox="0 0 700 700"
   xml:space="preserve"
   id="svg1"
   sodipodi:docname="shaker.svg"
   width="700"
   height="700"
   inkscape:version="1.4 (86a8ad7, 2024-10-11)"
   xmlns:inkscape="http://www.inkscape.org/namespaces/inkscape"
   xmlns:sodipodi="http://sodipodi.sourceforge.net/DTD/sodipodi-0.dtd"
   xmlns="http://www.w3.org/2000/svg"
   xmlns:svg="http://www.w3.org/2000/svg"><defs
   id="defs1" /><sodipodi:namedview
   id="namedview1"
   pagecolor="#505050"
   bordercolor="#eeeeee"
   borderopacity="1"
   inkscape:showpageshadow="0"
   inkscape:pageopacity="0"
   inkscape:pagecheckerboard="0"
   inkscape:deskcolor="#505050"
   inkscape:zoom="1.175"
   inkscape:cx="274.46808"
   inkscape:cy="280.42553"
   inkscape:window-width="2560"
   inkscape:window-height="1377"
   inkscape:window-x="1072"
   inkscape:window-y="799"
   inkscape:window-maximized="1"
   inkscape:current-layer="svg1" />
    <style
   type="text/css"
   id="style1">
        .st0 {
            fill: #FFFFFF;
        }
    </style>
    
<path
   class="st0"
   d="m 451.79486,248.26291 c -0.6364,-1.71101 -15.7955,-42.06573 -24.39227,-54.58529 -6.771,-9.86959 -20.41733,-15.10694 -26.84403,-17.11007 l -8.78456,-51.2676 c -2.51434,-14.59573 -15.08607,-25.18519 -29.81742,-25.18519 0,0 -8.96193,-0.11476 -11.95618,-0.11476 -2.9734,0 -11.84142,0.11476 -11.88316,0.11476 -14.80438,0 -27.37611,10.58946 -29.89045,25.18519 l -8.78456,51.2676 c -6.4267,2.00313 -20.07303,7.24048 -26.84402,17.11007 -8.59677,12.51956 -23.75587,52.87429 -24.39228,54.58529 l -0.40693,1.09546 22.98383,330.18258 C 271.3045,585.68597 280.08904,600 350.00035,600 c 69.91132,0 78.69588,-14.31403 79.22797,-20.54252 l 22.90036,-328.94105 0.0726,-1.15806 z M 318.76409,127.11528 c 1.62755,-9.45227 9.76525,-16.31716 19.42618,-16.31716 0,0 8.8576,-0.11476 11.81013,-0.11476 2.95252,0 11.81012,0.11476 11.88315,0.11476 9.5879,0 17.72561,6.86489 19.35315,16.31716 l 9.51748,55.45905 c -4.7307,1.6132 -15.69249,3.72718 -40.75378,3.72718 -25.04304,0 -36.00743,-2.11072 -40.74401,-3.72392 z m -37.36046,72.61346 c 5.09977,-7.44719 17.56782,-12.01813 23.006,-13.47809 6.60798,3.53221 21.98161,5.39254 45.59077,5.39254 23.6085,0 38.98278,-1.86033 45.59141,-5.39254 5.43819,1.46062 17.90623,6.03157 23.00535,13.47809 6.46388,9.41249 17.85798,38.36072 21.78925,48.59742 -6.75013,3.09207 -28.20618,9.52465 -90.38601,9.52465 -62.44654,0 -83.91367,-6.57929 -90.40493,-9.47574 3.91367,-10.19172 15.33386,-39.21884 21.80816,-48.64633 z M 418.62846,577.8821 c -1.29369,1.63799 -11.4554,11.43454 -68.62806,11.43454 -57.17268,0 -67.33438,-9.79655 -68.62807,-11.43454 L 259.21205,259.46662 c 12.15245,4.2436 37.64216,9.06755 90.78835,9.06755 53.10445,0 78.55895,-4.61398 90.77725,-8.90193 z"
   id="path1"
   style="stroke-width:10.6834" /></svg>
