<?xml version="1.0" encoding="utf-8"?>
<!-- Generator: Adobe Illustrator 19.0.0, SVG Export Plug-In . SVG Version: 6.00 Build 0)  -->
<svg version="1.1" id="Layer_1" xmlns="http://www.w3.org/2000/svg" xmlns:xlink="http://www.w3.org/1999/xlink" x="0px" y="0px"
	 viewBox="50 50 700 700" style="enable-background:new 50 50 700 700;" xml:space="preserve">
<style type="text/css">
	.st0{fill:#FFFFFF;}
</style>
<g>
	<path class="st0" d="M530.3,246.1l0.1-1c0-5.9,0-13.1-136.5-13.1s-136.5,7.3-136.4,13.8L290.3,535c0.6,6.3,10,27.1,103.7,27.1
		s103.1-20.7,103.7-27l32.6-288.7C530.3,246.3,530.4,246.1,530.3,246.1L530.3,246.1z M510.1,247.1c-14.6,2.1-46.5,4.5-116.1,4.5
		c-69.6,0-101.5-2.4-116.1-4.5c14.3-1.8,46-4,116.1-4C464.1,243.1,495.8,245.3,510.1,247.1L510.1,247.1z M518,251.4
		c-5,27.1-22.9,123.4-34.7,162.3c-8.7,28.8-31.3,63.2-89.4,63.2s-80.6-34.4-89.4-63.2c-11.8-39-29.7-135.2-34.7-162.3
		c17.4,3.8,60.2,5.8,124,5.8S500.7,255.2,518,251.4L518,251.4z M486.7,533.2c-0.1,0.2-7.4,17.6-92.7,17.6
		c-84.3,0-92.4-17.1-92.6-17.1l-17.8-157.2c3.6,15.8,7.1,29.9,10.3,40.3c8.1,26.6,31.8,71.2,100.1,71.2s92-44.6,100.1-71.2
		c3.1-10.4,6.7-24.6,10.3-40.3L486.7,533.2z"/>
</g>
</svg>
