<?xml version="1.0" encoding="UTF-8" standalone="no"?>
<svg
   version="1.1"
   x="0px"
   y="0px"
   viewBox="0 0 700 700"
   xml:space="preserve"
   id="svg1"
   sodipodi:docname="snifter.svg"
   width="700"
   height="700"
   inkscape:version="1.4 (86a8ad7, 2024-10-11)"
   xmlns:inkscape="http://www.inkscape.org/namespaces/inkscape"
   xmlns:sodipodi="http://sodipodi.sourceforge.net/DTD/sodipodi-0.dtd"
   xmlns="http://www.w3.org/2000/svg"
   xmlns:svg="http://www.w3.org/2000/svg"><defs
   id="defs1" /><sodipodi:namedview
   id="namedview1"
   pagecolor="#505050"
   bordercolor="#eeeeee"
   borderopacity="1"
   inkscape:showpageshadow="0"
   inkscape:pageopacity="0"
   inkscape:pagecheckerboard="0"
   inkscape:deskcolor="#505050"
   inkscape:zoom="1.175"
   inkscape:cx="264.25532"
   inkscape:cy="305.10638"
   inkscape:window-width="2560"
   inkscape:window-height="1377"
   inkscape:window-x="1072"
   inkscape:window-y="799"
   inkscape:window-maximized="1"
   inkscape:current-layer="svg1" />
    <style
   type="text/css"
   id="style1">
        .st0 {
            fill: #FFFFFF;
        }
    </style>
    <path
   class="st0"
   d="M 448.04223,425.1493 C 562.96403,393.50648 558.83366,312.47811 542.40164,245.41375 529.86984,194.21875 496.08509,127.21193 491.72454,118.68902 490.19003,112.93462 479.15437,100 350,100 c -129.15435,0 -140.19001,12.93462 -141.72453,18.68902 -4.36054,8.52291 -38.14529,75.52973 -50.6771,126.72473 -16.43201,67.06436 -20.56239,148.09273 94.35942,179.73555 65.60017,18.06242 68.93773,67.61422 67.76127,86.06667 -5.37077,1.8478 -20.94602,3.63806 -33.708,5.10223 -44.89712,5.1534 -100.76598,11.56636 -103.34906,40.75396 -0.54984,6.24673 1.5345,12.14179 6.03572,17.0586 C 198.86383,585.23677 226.63841,600 350,600 c 123.3616,0 151.13619,-14.76323 161.3023,-25.86924 4.50122,-4.91681 6.58559,-10.81187 6.03572,-17.0586 -2.58308,-29.1876 -58.45194,-35.60056 -103.34906,-40.75396 -12.76198,-1.46417 -28.33723,-3.25443 -33.70801,-5.10223 -1.17645,-18.45884 2.16109,-68.00425 67.76128,-86.06667 z m 20.73263,-304.46302 c -15.78224,2.09076 -48.91721,4.43488 -118.77486,4.43488 -69.85443,0 -102.9934,-2.34412 -118.77965,-4.43408 14.64896,-3.35035 47.22607,-7.59262 118.77965,-7.59262 71.54641,0 104.12352,4.24227 118.77486,7.59182 z M 367.44225,514.9819 c 0.90797,9.27738 12.92821,10.65844 45.05056,14.34125 31.50855,3.61888 90.1651,10.35153 91.80191,28.89989 0.2302,2.59588 -0.61374,4.84009 -2.64704,7.06513 -9.02801,9.85921 -42.65929,21.61737 -151.64766,21.61737 -108.98839,0 -142.61967,-11.75816 -151.64769,-21.61737 -2.03323,-2.22504 -2.8772,-4.46925 -2.64703,-7.06513 1.63681,-18.54836 60.29336,-25.28101 91.80191,-28.89989 32.12235,-3.68281 44.14265,-5.06387 45.05056,-14.34125 1.27881,-13.20955 3.6061,-80.22915 -77.12177,-102.45393 -103.17004,-28.40756 -101.87849,-95.60619 -85.12679,-163.99406 11.87406,-48.47366 44.55665,-113.88442 49.34161,-123.33363 17.03622,4.19193 62.12116,6.46811 130.34918,6.46811 68.22804,0 113.31298,-2.27618 130.3492,-6.46811 4.78495,9.44921 37.46755,74.85997 49.34161,123.33363 16.75169,68.38787 18.04324,135.5865 -85.12679,163.99407 -80.72787,22.22477 -78.40054,89.24437 -77.12177,102.45392 z"
   id="path1"
   style="stroke-width:13.0945" />
</svg>
