<?xml version="1.0" encoding="UTF-8" standalone="no"?>
<svg
   version="1.1"
   x="0px"
   y="0px"
   viewBox="0 0 700 700"
   xml:space="preserve"
   id="svg1"
   sodipodi:docname="stein.svg"
   width="700"
   height="700"
   inkscape:version="1.4 (86a8ad7, 2024-10-11)"
   xmlns:inkscape="http://www.inkscape.org/namespaces/inkscape"
   xmlns:sodipodi="http://sodipodi.sourceforge.net/DTD/sodipodi-0.dtd"
   xmlns="http://www.w3.org/2000/svg"
   xmlns:svg="http://www.w3.org/2000/svg"><defs
   id="defs1" /><sodipodi:namedview
   id="namedview1"
   pagecolor="#505050"
   bordercolor="#eeeeee"
   borderopacity="1"
   inkscape:showpageshadow="0"
   inkscape:pageopacity="0"
   inkscape:pagecheckerboard="0"
   inkscape:deskcolor="#505050"
   inkscape:zoom="1.175"
   inkscape:cx="182.55319"
   inkscape:cy="309.3617"
   inkscape:window-width="2560"
   inkscape:window-height="1377"
   inkscape:window-x="1072"
   inkscape:window-y="799"
   inkscape:window-maximized="1"
   inkscape:current-layer="svg1" />
    <style
   type="text/css"
   id="style1">
        .st0 {
            fill: #FFFFFF;
        }
    </style>
    <path
   class="st0"
   d="m 498.47709,304.14845 c -7.99469,-21.09054 -23.47501,-37.41749 -43.60104,-45.96407 -6.63031,-2.81047 -13.72211,-4.4019 -21.00212,-5.23848 -0.88748,-4.01744 -1.63899,-7.95115 -1.65841,-10.69196 8.08577,-3.61689 13.17086,-11.19363 13.09049,-19.7563 l -0.0691,-7.53922 c -0.0911,-10.347 -7.62495,-18.95255 -16.77169,-20.67793 0.0538,-2.07906 0.35369,-5.63701 1.36639,-11.47763 0.50908,-0.6055 2.92031,-1.64502 4.5171,-2.33089 6.14604,-2.64168 16.42875,-7.06233 17.17357,-21.07446 0.45015,-8.27332 -3.92233,-12.0992 -7.67319,-13.84602 -11.48834,-5.35301 -27.87425,3.56331 -37.28353,20.335 -4.27063,7.6196 -6.12462,21.33166 -6.81585,28.14214 -15.13739,3.97056 -24.05907,1.11455 -27.72419,-0.70727 -0.13937,-3.30075 -0.84126,-8.51444 -3.43472,-14.3765 -3.42988,-7.75895 -10.36897,-12.04564 -14.80033,-14.09789 -0.0911,-2.62025 -0.42868,-6.11926 -1.41997,-9.4736 -2.55059,-8.64305 -9.16817,-13.91568 -13.06371,-16.37517 -0.26791,-2.27195 -0.79839,-5.44946 -1.87007,-8.55731 -1.87542,-5.41195 -5.83525,-8.47694 -8.7395,-10.07373 C 327.42194,113.79244 323.32815,100 311.44329,100 c -11.88486,0 -15.97866,13.79244 -17.25395,20.36716 -2.90423,1.59679 -6.86407,4.66178 -8.73949,10.07908 -1.07171,3.1025 -1.60216,6.28537 -1.87008,8.55196 -3.89553,2.45949 -10.51311,7.73212 -13.06369,16.37517 -0.99128,3.35434 -1.32888,6.85335 -1.41997,9.47359 -4.43137,2.05226 -11.37046,6.33895 -14.79445,14.09787 -2.52915,5.70666 -3.25789,10.80247 -3.424,14.11394 -4.57068,2.6899 -12.46892,8.40728 -15.03557,16.90029 -1.45547,4.8145 -0.82919,9.82524 1.58139,14.6337 L 205.64765,504.8461 c -2.25051,2.88817 -6.3068,9.48967 -6.81049,20.05637 -0.26788,5.69059 0.9217,10.41667 2.0201,13.46558 -1.95579,2.59881 -4.34027,6.68725 -4.85467,11.60623 -0.59479,5.64236 0.33756,14.19431 8.15007,22.86415 C 215.30878,585.23234 242.97939,600 311.44325,600 c 68.46385,0 96.13447,-14.76766 107.29059,-27.16157 7.81252,-8.66984 8.74487,-17.22179 8.1501,-22.86415 -0.51435,-4.91898 -2.8989,-9.00742 -4.85471,-11.60623 1.09847,-3.04891 2.28804,-7.77499 2.02011,-13.47093 -0.50371,-10.56135 -4.55997,-17.16285 -6.81048,-20.05102 l -7.04626,-62.16242 c 2.94175,-4.29205 11.24721,-8.27332 20.74762,-12.82258 20.51719,-9.8326 48.61112,-23.29817 64.80946,-57.26486 10.14874,-21.27808 11.14004,-46.22664 2.72741,-68.44779 z m -34.12744,3.93304 c 7.84464,16.16084 5.79239,34.96335 1.25385,47.16435 -11.97059,32.21987 -41.82744,45.01029 -60.49063,42.62047 L 393.91924,299.1866 c 1.97322,-2.02278 5.77297,-5.56935 10.79712,-8.81786 1.3657,2.24649 3.04824,4.20833 5.3155,5.63499 1.52177,0.95912 3.783,1.36102 6.32287,1.36102 6.53184,0 14.92307,-2.6631 17.42543,-5.36372 1.83323,-1.97791 3.00604,-4.3155 3.68991,-6.91296 12.43609,4.24985 21.51786,11.94112 26.87958,22.99342 z m -64.1437,-52.40751 c -4.17819,1.1554 -7.96923,2.39653 -10.81989,3.54456 l -3.58876,-31.63312 c 6.64704,-1.89218 9.30413,-1.62092 10.09382,-0.85465 4.62628,4.50236 4.53921,17.28877 4.31483,28.94322 z m -99.49551,-126.25654 3.47758,-1.04488 0.41262,-3.59547 c 0.64297,-5.64236 3.45076,-13.80315 6.84261,-13.80315 3.39184,0 6.19962,8.16079 6.84263,13.80316 l 0.47693,3.53116 3.34898,1.0931 c 0.0373,0.0107 3.78837,1.26994 4.95113,4.62427 0.87539,2.53719 1.22907,5.13734 1.38983,6.79441 -3.03485,0.29002 -8.21103,0.56264 -17.00947,0.56264 -8.79844,0 -13.97396,-0.27261 -17.0088,-0.56264 0.16077,-1.65372 0.51577,-4.25454 1.38916,-6.78905 1.15741,-3.34898 4.89219,-4.61355 4.88683,-4.61355 z m -19.67057,29.06379 c 2.19157,-7.41598 9.97192,-11.10254 10.02015,-11.12397 l 2.51106,-1.13129 c 3.75889,0.40054 9.27668,0.64368 17.87217,0.64368 8.59482,0 14.11193,-0.24314 17.87082,-0.64368 l 2.51241,1.13129 c 0.0746,0.0322 7.82858,3.70263 10.02015,11.12397 1.286,4.34563 0.95374,9.66649 0.94836,9.72008 l -0.0274,0.41728 c -3.94376,1.10449 -12.60288,2.50303 -31.32435,2.50303 -18.72147,0 -27.38058,-1.39854 -31.32434,-2.50303 l -0.0274,-0.41728 c -0.005,-0.0536 -0.33756,-5.37445 0.94848,-9.72008 z m -16.70204,24.90033 c 3.04356,-6.89622 11.70804,-9.5111 11.77234,-9.53253 l 1.23443,-0.35164 c 5.09649,1.68922 14.93377,3.1112 34.09865,3.1112 19.15883,0 28.99613,-1.42064 34.09394,-3.10919 l 1.23913,0.34963 c 0.0911,0.0268 8.72879,2.63631 11.7777,9.53253 2.97389,6.73011 2.48627,12.32961 2.48627,12.34567 l -0.11851,1.08171 c -4.99534,1.72941 -17.70539,4.26593 -49.4785,4.26593 -31.80794,0 -44.51129,-2.54054 -49.49457,-4.26794 l -0.0966,-1.0422 c -0.005,-0.0538 -0.49295,-5.65308 2.48628,-12.38319 z m -17.99874,29.77109 c 1.71803,-5.7455 9.3778,-10.42805 12.28337,-11.80113 9.94448,4.23311 33.4456,5.21034 52.82079,5.21034 19.95791,0 42.7879,-1.02212 52.72097,-5.18489 3.90023,2.61958 17.66587,9.86542 42.37397,2.10919 l 3.57404,-1.12526 0.25723,-3.74015 c 0.36971,-5.40658 2.12192,-20.87083 5.76561,-27.36517 7.31417,-13.03691 18.3685,-17.96125 23.07315,-15.75896 0.84126,0.39116 1.50034,0.69659 1.35566,3.31147 -0.36433,6.86407 -4.24383,8.87346 -10.55063,11.57943 -4.33491,1.87007 -9.73617,4.19024 -10.79712,10.01479 -1.43605,7.8768 -1.96652,13.46022 -1.61823,17.07176 0.53586,5.59949 3.56332,6.97123 6.32288,7.37848 5.78169,0.27862 10.29344,4.54924 10.34166,10.20232 l 0.0691,7.53923 c 0.0428,4.42601 -2.92031,8.35905 -7.54459,10.02015 -1.03418,0.37509 -4.1849,1.51105 -5.03152,4.88682 -1.40926,5.78169 0.36971,13.46023 2.43805,22.3444 2.06299,8.89489 4.89222,21.07445 1.97191,24.30556 -1.72007,1.11453 -8.81454,2.75419 -10.29345,2.56129 -5.23512,-3.29003 -4.95649,-17.23787 -4.71536,-29.54067 0.29476,-14.90699 0.59479,-30.32301 -7.61425,-38.30698 -6.79977,-6.61758 -18.30954,-2.79707 -24.48238,-0.73942 l 0.009,0.0669 -0.49164,0.11523 c -0.25185,0.0593 -25.36115,5.83525 -67.13499,5.83525 -34.47305,0 -57.33519,-3.89285 -64.5067,-5.30143 -0.80779,-1.95915 -1.15003,-3.83257 -0.59742,-5.68858 z m 164.39739,302.21261 c 1.08039,2.36571 2.13933,5.62293 2.34964,10.05162 0.22233,4.70331 -1.05229,8.45417 -1.77027,10.18358 -6.06299,3.74616 -38.30295,21.70407 -99.8726,21.70407 -61.6065,0 -93.84845,-17.978 -99.88332,-21.7101 -0.72142,-1.72138 -1.98594,-5.43807 -1.75955,-10.17219 0.21026,-4.43673 1.27128,-7.69796 2.34764,-10.05899 10.59617,7.64237 38.48512,21.87955 99.29523,21.87955 60.80474,0 88.69504,-14.2345 99.29323,-21.87754 z m -0.15813,50.13221 c -7.90895,8.78772 -31.3143,23.52859 -99.13516,23.52859 -67.82086,0 -91.22619,-14.74087 -99.13515,-23.52859 -4.04557,-4.49032 -5.91028,-9.46288 -5.39588,-14.3765 0.1701,-1.62024 0.87474,-3.19158 1.66445,-4.52849 11.39323,6.42602 44.57022,21.68598 102.86658,21.68598 58.29503,0 91.47135,-15.25996 102.86592,-21.68531 0.791,1.33892 1.49499,2.90893 1.66512,4.52783 0.51435,4.91361 -1.35031,9.88617 -5.39588,14.37649 z m 75.26901,-197.62731 c -14.53189,30.46767 -40.61107,42.96874 -59.64935,52.09404 -12.77436,6.11926 -22.86953,10.95786 -26.65254,19.33835 l -0.62156,1.37711 7.29072,64.31112 c -5.99736,4.96453 -30.58422,21.27808 -94.77144,21.27808 -64.2803,0 -88.84709,-16.36245 -94.77209,-21.26736 l 31.16297,-274.80923 c 10.01479,1.78968 32.07519,4.92433 63.60918,4.92433 31.53399,0 53.59439,-3.13464 63.60918,-4.92433 l 5.21905,45.95335 7.18557,-3.98127 c 0.0636,-0.034 4.9498,-2.68789 12.65044,-5.10384 0.0483,4.44209 0.26656,8.75758 0.92302,12.69732 -10.29008,6.08308 -16.75361,13.67322 -17.051,14.0329 l -1.51106,1.8004 12.61896,111.2558 3.64368,0.94847 c 3.2954,0.8574 6.94981,1.29673 10.83463,1.29673 22.7195,0 53.33185,-15.06773 66.32589,-50.02037 6.79441,-18.28274 6.15677,-39.65727 -1.66645,-55.78061 -6.77298,-13.95854 -18.65248,-24.00549 -34.35249,-29.05842 -0.64703,-0.20763 -1.27195,-0.28598 -1.91362,-0.46014 -0.3088,-3.04891 -0.85059,-6.21102 -1.52847,-9.42872 4.87946,0.84861 9.65779,2.0335 14.15882,3.94644 17.33968,7.3624 30.70345,21.47634 37.6211,39.74837 7.36239,19.4348 6.4997,41.24335 -2.36304,59.83153 z M 420.64141,226.38782 c 2.0094,0 4.01345,-0.76093 5.54595,-2.28802 0,-0.005 0,-0.005 0,-0.005 1.4789,-1.4789 2.29873,-3.44542 2.29873,-5.54054 0,-2.09512 -0.81449,-4.06701 -2.29873,-5.55128 -3.0543,-3.05426 -8.03758,-3.05426 -11.09186,0 -1.48425,1.48427 -2.29873,3.45616 -2.29873,5.55128 0,2.09512 0.81986,4.067 2.29873,5.54054 1.52715,1.52715 3.53653,2.29339 5.54591,2.29339 z m -1.66644,-9.50574 c 0.46079,-0.4608 1.06096,-0.69125 1.66644,-0.69125 0.60555,0 1.20564,0.23045 1.66646,0.69125 0.44478,0.44477 0.69125,1.03956 0.69125,1.67181 0,0.62694 -0.24647,1.21635 -0.69125,1.65574 v 0.005 c -0.91632,0.92697 -2.4059,0.93235 -3.3329,-0.005 -0.44478,-0.4394 -0.69125,-1.02881 -0.69125,-1.65574 0,-0.63232 0.24647,-1.22707 0.69125,-1.67181 z"
   id="path1"
   style="stroke-width:10.9739" />
</svg>
