<?xml version="1.0" encoding="utf-8"?>
<!-- Generator: Adobe Illustrator 19.0.0, SVG Export Plug-In . SVG Version: 6.00 Build 0)  -->
<svg version="1.1" id="Layer_1" xmlns="http://www.w3.org/2000/svg" xmlns:xlink="http://www.w3.org/1999/xlink" x="0px" y="0px"
	 viewBox="44 47 700 700" style="enable-background:new 44 47 700 700;" xml:space="preserve">
<style type="text/css">
	.st0{fill:#FFFFFF;}
</style>

<path
   class="st0"
   d="M 463.35882,674.3419 H 325.37389 c -36.06426,0 -65.07245,-29.00821 -65.07245,-65.07244 v -467.2672 c 0,-3.92002 3.13602,-7.05604 7.05605,-7.05604 v 0 c 3.92002,0 6.27204,3.13602 6.27204,7.05604 v 467.2672 c 0,29.00819 23.52016,51.74435 51.74436,51.74435 h 137.98493 c 29.00821,0 51.74436,-23.52016 51.74436,-51.74435 v -467.2672 c 0,-3.92002 3.13602,-7.05604 6.27204,-7.05604 v 0 c 3.92003,0 7.05605,3.13602 7.05605,7.05604 v 467.2672 c 0,36.06423 -29.0082,65.07244 -65.07245,65.07244 z"
   id="path6"
   style="fill:#ffffff;stroke-width:7.84006" /><path
   class="st0"
   d="m 394.36635,205.50669 c -134.06491,0 -134.06491,-14.89609 -134.06491,-21.16814 0,-3.92002 3.13602,-7.05605 6.27204,-7.05605 2.35202,0 4.70403,1.56802 6.27204,3.92003 7.84006,4.70404 53.31237,10.19207 121.52083,10.19207 68.20847,0 113.68078,-6.27204 121.52083,-10.19207 1.56801,-3.13602 5.48804,-4.70403 8.62406,-3.13602 2.35202,0.78401 3.92003,3.13602 3.92003,6.27204 0,6.27205 0,21.16814 -134.06492,21.16814 z m 120.73683,-20.38413 z m -241.47365,0 z"
   id="path8"
   style="fill:#ffffff;stroke-width:7.84006" /><path
   class="st0"
   d="m 394.36635,242.35494 c -134.06491,0 -134.06491,-14.89609 -134.06491,-21.16814 0,-3.92002 3.13602,-7.05605 6.27204,-7.05605 2.35202,0 4.70403,1.56802 6.27204,3.92003 7.84006,4.70404 53.31237,10.19207 121.52083,10.19207 68.20847,0 113.68078,-6.27204 121.52083,-10.19207 1.56801,-3.13602 5.48804,-4.70403 8.62406,-3.13602 2.35202,0.78401 3.92003,3.13602 3.92003,6.27204 0,6.27205 0,21.16814 -134.06492,21.16814 z m 120.73683,-20.38413 z m -241.47365,0 z"
   id="path10"
   style="fill:#ffffff;stroke-width:7.84006" /><path
   class="st0"
   d="m 394.36635,632.78962 c -74.4805,0 -134.06491,-36.84825 -134.06491,-82.32057 0,-3.92002 3.13602,-7.05605 6.27204,-7.05605 3.92003,0 7.05605,3.13603 7.05605,7.05605 0,37.63226 54.09636,68.99247 120.73682,68.99247 66.64046,0 120.73683,-30.5762 120.73683,-68.99247 0,-3.92002 3.13602,-7.05605 6.27204,-7.05605 3.13602,0 7.05605,3.13603 7.05605,6.27205 v 0 c 0,46.25632 -59.58441,83.10457 -134.06492,83.10457 z"
   id="path12"
   style="fill:#ffffff;stroke-width:7.84006" /><path
   class="st0"
   d="m 488.54843,564.58114 c -13.29436,-0.78399 -26.58874,-1.568 -39.88309,-3.92001 -19.55054,-3.13603 -39.10107,-4.70404 -59.43363,-5.48804 -19.55053,0 -39.10108,2.35201 -58.65162,5.48804 -26.58872,3.92001 -47.7033,7.05605 -60.21565,-3.92003 -7.82021,-7.84006 -11.73032,-18.03213 -10.16628,-29.00821 0,-3.92001 3.12809,-7.05604 6.25617,-7.05604 3.91011,0 7.0382,3.13603 7.0382,7.05604 -0.78202,7.05605 1.56405,14.1121 5.47415,18.81614 7.82022,7.05605 26.58873,3.92002 50.04938,0.784 19.55053,-3.13602 39.88308,-5.48804 60.21565,-5.48804 20.33256,0.78401 40.6651,2.35202 60.99767,5.48804 26.58873,3.92003 49.26735,7.05605 58.6516,-1.56801 4.69213,-4.70403 6.25618,-11.76008 6.25618,-18.03213 0,-3.92001 3.12808,-7.05604 6.25617,-7.05604 3.12808,0 7.03819,3.13603 7.03819,6.27205 v 0 c 0.78203,10.19206 -3.12808,21.16814 -10.16628,28.22419 -8.60224,7.05605 -18.76851,10.19207 -29.71681,9.40805 z"
   id="path14"
   style="fill:#ffffff;stroke-width:7.83013" /><path
   class="st0"
   d="m 363.00614,370.14782 c -14.8961,-0.78401 -29.79221,-5.48804 -42.33629,-14.11209 -21.16815,-13.3281 -33.71224,-32.92822 -33.71224,-48.60834 0,-2.35201 1.56803,-4.70403 3.92003,-6.27204 14.89611,-7.05605 37.63227,-3.13602 58.0164,10.97608 21.16814,13.32808 33.71223,32.92822 33.71223,48.60833 0,2.35202 -1.56801,4.70402 -3.92003,6.27205 -4.70403,2.352 -10.19207,3.13601 -15.6801,3.13601 z m 12.54408,-9.40806 z m -75.26451,-48.60833 c 4.70403,14.11209 14.1121,25.87217 27.44018,32.92822 11.76009,8.62406 26.65619,12.54409 40.76828,11.76008 -4.70402,-14.1121 -14.11209,-25.87218 -27.44018,-32.92823 -10.97608,-9.40806 -25.87218,-13.32808 -40.76828,-11.76007 z"
   id="path16"
   style="fill:#ffffff;stroke-width:7.84006" /><path
   class="st0"
   d="m 327.72589,471.28451 c -0.78399,0 -1.568,0 -2.352,0 l -21.16815,-7.05605 c -4.70404,-1.56801 -9.40807,-5.48804 -10.97608,-10.19207 -9.40806,-18.81612 4.70403,-58.80039 7.05605,-62.72042 1.56801,-3.13602 5.48804,-5.48804 8.62406,-3.92003 3.13602,1.56801 5.48804,5.48804 3.92003,8.62406 -5.48804,14.8961 -12.54409,42.33629 -7.05605,52.52835 0.784,1.56801 1.56801,2.35202 3.13602,3.13603 l 21.16814,7.05604 c 3.13602,1.56802 4.70403,5.48804 3.13602,8.62407 -0.78399,2.35201 -3.13602,3.92002 -5.48804,3.92002 z"
   id="path18"
   style="fill:#ffffff;stroke-width:7.84006" /><path
   class="st0"
   d="m 306.55775,502.64473 c -2.35201,0 -4.70403,-1.56802 -6.27204,-3.92003 -12.54409,-29.0082 0.784,-43.9043 0.784,-44.68831 2.35202,-2.35201 7.05605,-2.35201 9.40807,0 2.35202,2.35202 2.35202,6.27205 0.78401,8.62406 -0.78401,0.78401 -7.84006,10.97608 0.784,30.57621 1.56801,3.13602 0,7.05605 -3.92003,8.62406 v 0 c 0,0.78401 -0.784,0.78401 -1.56801,0.78401 z"
   id="path20"
   style="fill:#ffffff;stroke-width:7.84006" /><path
   class="st0"
   d="m 423.37455,370.14782 c -5.48804,0 -10.97608,-0.78401 -16.46411,-3.13601 -2.35201,-0.78402 -3.92003,-3.13604 -3.92003,-6.27205 0,-16.46411 12.54408,-35.28025 33.71223,-48.60833 21.16814,-13.3281 43.9043,-18.03213 58.01639,-10.97608 2.35202,0.78401 3.92003,3.13602 3.92003,6.27204 0.78401,16.46411 -12.54408,35.28024 -33.71223,48.60834 -11.76008,8.62405 -26.65618,13.32808 -41.55228,14.11209 z m -6.27205,-13.32809 c 14.89611,1.56802 29.00821,-2.35201 40.76828,-10.97607 12.54409,-7.05605 22.73616,-18.81614 27.4402,-32.92823 -14.89611,-1.56801 -29.00821,2.35202 -40.76828,11.76009 -13.3281,6.27203 -22.73616,18.03211 -27.4402,32.14421 z"
   id="path22"
   style="fill:#ffffff;stroke-width:7.84006" /><path
   class="st0"
   d="m 461.79081,512.05279 c -14.11209,0 -28.22419,-4.70403 -40.76828,-12.54409 -8.62406,-5.48804 -18.03212,-8.62406 -28.22419,-10.19207 -10.19207,1.56801 -19.60014,4.70403 -27.44018,10.19207 -16.46412,10.19208 -36.06426,14.89611 -54.88038,10.97608 -11.76008,-2.35202 -21.95214,-9.40807 -28.22419,-19.60014 -19.60014,-29.7922 -18.03213,-82.32056 -13.32809,-104.27271 2.35201,-10.97607 8.62406,-14.8961 12.54409,-15.68011 13.32808,-2.35201 29.00819,14.1121 47.82431,40.76828 14.1121,16.46412 34.49625,26.65619 56.44839,26.65619 h 13.3281 c 21.95214,-0.784 42.33629,-10.19207 56.44838,-26.65619 16.46411,-22.73615 33.71222,-43.12029 47.82432,-40.76828 4.70404,0.78401 10.19208,3.92003 12.54409,15.68011 4.70404,21.95215 6.27205,74.48051 -13.32809,104.27271 -6.27205,10.19207 -16.46411,17.24812 -28.22419,19.60014 -3.13602,0.78401 -7.84006,1.56801 -12.54409,1.56801 z m -64.28843,-36.06424 c 10.19207,2.35201 20.38413,6.27204 29.7922,11.76007 13.32809,9.40807 29.7922,12.54409 46.25631,9.40807 7.84006,-1.56801 14.89611,-6.27205 18.81614,-13.3281 16.4641,-24.30416 16.4641,-73.6965 11.76007,-94.08063 -0.78401,-3.92003 -2.35202,-5.48804 -2.35202,-5.48804 -1.56801,-0.78401 -9.40805,0.784 -34.49623,35.28024 -16.46412,20.38414 -41.55228,32.14422 -67.42446,32.14422 H 387.3103 c -25.87217,-0.78401 -50.96035,-12.54408 -67.42445,-32.14422 -25.08818,-34.49624 -32.14423,-35.28024 -34.49625,-35.28024 0,0 -1.568,0.784 -2.352,5.48804 -4.70404,20.38413 -4.70404,68.99246 11.76007,94.08063 3.92003,7.05605 10.97608,11.76009 18.81613,13.3281 15.6801,3.13602 32.92823,-0.78401 46.25632,-9.40807 9.40807,-5.48803 19.60013,-9.40806 29.7922,-11.76007 0.78401,-0.78401 2.35202,-0.78401 3.13602,-0.78401 h 2.35202 c 0,0.78401 1.56801,0.78401 2.35202,0.78401 z"
   id="path24"
   style="fill:#ffffff;stroke-width:7.84006" /><path
   class="st0"
   d="m 392.79834,322.3235 c -4.70403,0 -9.40806,-2.35203 -11.76008,-6.27204 -36.06425,-54.88038 -112.11276,-33.71223 -112.89677,-33.71223 -3.92003,0.78399 -7.05605,-1.56801 -7.84005,-4.70405 -0.78401,-3.13601 0.784,-6.27203 3.92002,-7.84004 15.68011,-3.92003 31.36022,-5.48804 47.82433,-4.70403 32.14422,0.784 61.93642,16.4641 79.96855,43.12029 0.784,0.78401 0.784,1.56801 1.56801,0 18.03213,-26.65619 47.82433,-43.12029 79.96854,-43.9043 15.6801,-0.78401 32.14422,0.78401 47.82433,4.70403 3.13602,1.56801 5.48804,4.70404 3.92003,8.62405 -0.78401,3.13604 -4.70403,4.70405 -7.84006,3.92003 -0.784,0 -76.83252,-21.16814 -112.89676,33.71224 -2.35202,4.70402 -6.27205,7.05605 -11.76009,7.05605 z"
   id="path26"
   style="fill:#ffffff;stroke-width:7.84006" /><path
   class="st0"
   d="m 457.87078,471.28451 c -3.92001,0 -7.05605,-3.13602 -7.05605,-6.27204 0,-3.13602 1.56801,-5.48804 4.70404,-6.27205 l 21.16815,-7.05604 c 1.56801,-0.78401 2.35201,-1.56802 3.13602,-3.13603 4.70403,-10.19206 -1.56801,-37.63225 -7.05605,-52.52835 -1.56801,-3.13602 0.784,-7.05605 3.92003,-8.62406 3.13602,-1.56801 7.05605,0.78401 8.62406,3.92003 v 0 c 1.56801,4.70403 15.6801,43.9043 7.05605,62.72042 -2.35202,4.70403 -5.48804,8.62406 -10.97608,10.19207 l -21.16815,7.05605 c -0.78401,0 -1.56801,0 -2.35202,0 z"
   id="path28"
   style="fill:#ffffff;stroke-width:7.84006" /><path
   class="st0"
   d="m 479.03893,502.64473 c -0.784,0 -1.56801,0 -2.35201,-0.78401 -3.13603,-1.56801 -4.70404,-5.48804 -3.13603,-8.62406 v 0 c 8.62407,-20.38414 1.56802,-30.57621 0.78401,-30.57621 -2.35202,-3.13602 -1.56801,-7.05605 0.78401,-9.40806 3.13602,-2.35202 7.05605,-2.35202 9.40806,0.784 0.78401,0.78401 14.11209,16.46412 0.78401,44.68831 -0.78401,2.35201 -3.13602,3.92003 -6.27205,3.92003 z"
   id="path30"
   style="fill:#ffffff;stroke-width:7.84006" /><path
   class="st0"
   d="m 375.55022,436.00427 c -2.35202,0 -4.70402,-0.784 -5.48804,-3.13602 -3.13601,-5.48804 -8.62405,-9.40806 -14.89609,-10.97608 -3.13603,0 -7.05605,0.78401 -9.40807,3.92003 -2.35202,2.35202 -7.05605,2.35202 -9.40807,-0.784 -0.784,-0.78401 -1.56801,-2.35202 -1.56801,-3.92003 -0.784,-9.40807 2.35202,-18.03212 8.62406,-25.08817 9.40807,-7.84005 21.16815,-10.97608 32.92823,-7.84005 3.92002,0 6.27204,3.13602 6.27204,7.05605 0,3.92002 -3.13602,6.27204 -7.05605,6.27204 h -0.784 c -7.84005,-2.35202 -15.68011,-0.78402 -21.95215,3.92003 -0.78401,0.78399 -1.56801,1.568 -2.35202,2.352 2.35202,0 3.92003,0 6.27205,0 10.19207,2.35202 18.81612,8.62407 24.30416,17.24813 2.35202,3.13602 1.56801,7.05605 -1.56801,9.40806 v 0 c -0.78401,1.56801 -2.35202,1.56801 -3.92003,1.56801 z"
   id="path32"
   style="fill:#ffffff;stroke-width:7.84006" /><path
   class="st0"
   d="m 410.83046,436.00427 c -3.92002,0 -6.27203,-3.13602 -6.27203,-7.05605 0,-1.56801 0,-2.35201 0.784,-3.92002 5.48803,-8.62406 14.11209,-14.89611 24.30416,-16.46412 2.35202,0 3.92003,0 6.27205,0 -0.78401,-0.78401 -1.56801,-1.56801 -2.35202,-2.35202 -6.27204,-4.70402 -14.1121,-6.27203 -21.95214,-3.92001 -3.92003,0.784 -7.05605,-1.56803 -7.84006,-5.48804 -0.78401,-3.92003 1.56801,-7.05605 5.48804,-7.84006 h 0.78399 c 11.76009,-3.13602 24.30418,0 32.92824,7.84006 6.27203,7.05605 9.40805,15.6801 8.62406,25.08816 -0.78402,3.92003 -3.92003,6.27205 -7.05605,5.48804 -1.56801,0 -2.35202,-0.784 -3.92003,-1.56801 -2.35202,-2.35201 -5.48804,-3.92003 -9.40807,-3.92003 -6.27204,1.56802 -10.97607,5.48804 -14.8961,10.97608 -0.78401,2.35202 -3.13601,3.13602 -5.48804,3.13602 z"
   id="path34"
   style="fill:#ffffff;stroke-width:7.84006" /><path
   class="st0"
   d="m 408.47844,402.29205 c -3.92001,0 -6.27203,-3.13603 -6.27203,-7.05605 v -90.16062 c 0,-3.92003 3.13602,-7.05605 6.27203,-7.05605 3.92003,0 7.05605,3.13602 7.05605,7.05605 V 395.236 c 0,3.92002 -3.13602,7.05605 -7.05605,7.05605 z"
   id="path36"
   style="fill:#ffffff;stroke-width:7.84006" /><path
   class="st0"
   d="m 378.68624,402.29205 c -3.92002,0 -6.27204,-3.13603 -6.27204,-7.05605 v 0 -90.16062 c 0,-3.92003 3.13602,-7.05605 6.27204,-7.05605 3.92003,0 7.05605,3.13602 7.05605,7.05605 V 395.236 c -0.784,3.92002 -3.13602,7.05605 -7.05605,7.05605 z"
   id="path38"
   style="fill:#ffffff;stroke-width:7.84006" /><path
   class="st0"
   d="m 394.36635,674.3419 c -3.92002,0 -7.05605,-3.13602 -7.05605,-6.27204 v 0 -41.55229 c 0,-3.92003 3.13603,-7.05605 6.27205,-7.05605 3.92003,0 7.05605,3.13602 7.05605,7.05605 v 41.55229 c 0,3.13602 -2.35202,6.27204 -6.27205,6.27204 z"
   id="path40"
   style="fill:#ffffff;stroke-width:7.84006" /><path
   class="st1"
   d="m 522.94323,138.86624 c 0,7.84006 -58.0164,14.89611 -130.14489,14.89611"
   id="path42"
   style="fill:#ffffff;stroke:#ffffff;stroke-width:11.7601;stroke-miterlimit:10" /><path
   class="st1"
   d="m 265.78947,138.86624 c 0,7.84006 57.2324,14.89611 127.79288,14.89611"
   id="path44"
   style="fill:#ffffff;stroke:#ffffff;stroke-width:11.7601;stroke-miterlimit:10" /><path
   class="st1"
   d="m 265.78947,139.65025 c 0,-7.84006 58.01639,-14.1121 130.1449,-14.1121"
   id="path46"
   style="fill:#ffffff;stroke:#ffffff;stroke-width:11.7601;stroke-miterlimit:10" /><path
   class="st1"
   d="m 522.94323,140.43425 c 0,-7.84005 -57.23239,-14.8961 -127.79287,-14.8961"
   id="path48"
   style="fill:#ffffff;stroke:#ffffff;stroke-width:11.7601;stroke-miterlimit:10" /></svg>
