<?xml version="1.0" encoding="UTF-8" standalone="no"?>
<!-- Generator: Adobe Illustrator 19.0.0, SVG Export Plug-In . SVG Version: 6.00 Build 0)  -->

<svg
   version="1.1"
   id="Layer_1"
   x="0px"
   y="0px"
   viewBox="44 47 700 700"
   style="enable-background:new 44 47 700 700;"
   xml:space="preserve"
   sodipodi:docname="tiki.svg"
   inkscape:version="1.2.2 (732a01da63, 2022-12-09)"
   xmlns:inkscape="http://www.inkscape.org/namespaces/inkscape"
   xmlns:sodipodi="http://sodipodi.sourceforge.net/DTD/sodipodi-0.dtd"
   xmlns="http://www.w3.org/2000/svg"
   xmlns:svg="http://www.w3.org/2000/svg"><defs
   id="defs29"><inkscape:path-effect
     effect="mirror_symmetry"
     start_point="394,271.93628"
     end_point="394,559.02712"
     center_point="394,415.4817"
     id="path-effect4232"
     is_visible="true"
     lpeversion="1.2"
     lpesatellites=""
     mode="free"
     discard_orig_path="false"
     fuse_paths="false"
     oposite_fuse="false"
     split_items="false"
     split_open="false"
     link_styles="false" /></defs><sodipodi:namedview
   id="namedview27"
   pagecolor="#000000"
   bordercolor="#000000"
   borderopacity="0.25"
   inkscape:showpageshadow="2"
   inkscape:pageopacity="0"
   inkscape:pagecheckerboard="0"
   inkscape:deskcolor="#d1d1d1"
   showgrid="false"
   inkscape:zoom="1.4671429"
   inkscape:cx="170.39922"
   inkscape:cy="282.18111"
   inkscape:window-width="2560"
   inkscape:window-height="1377"
   inkscape:window-x="-8"
   inkscape:window-y="-8"
   inkscape:window-maximized="1"
   inkscape:current-layer="Layer_1" />
<style
   type="text/css"
   id="style2">
	.st0{fill:#FFFFFF;}
</style>

<path
   style="opacity:1;fill:none;stroke:#fbfaff;stroke-width:7.3;stroke-linecap:round;stroke-linejoin:bevel;stroke-dasharray:none;stroke-opacity:1"
   id="path3914"
   sodipodi:type="arc"
   sodipodi:cx="394"
   sodipodi:cy="184.00098"
   sodipodi:rx="129.5034"
   sodipodi:ry="13.631938"
   sodipodi:start="0.17453293"
   sodipodi:end="2.9670597"
   sodipodi:open="true"
   sodipodi:arc-type="arc"
   d="M 521.53595,186.36814 A 129.5034,13.631938 0 0 1 394,197.63291 129.5034,13.631938 0 0 1 266.46405,186.36814" /><path
   style="fill:none;stroke:#fbfaff;stroke-width:7.3;stroke-linecap:round;stroke-linejoin:bevel;stroke-dasharray:none;stroke-opacity:1"
   id="path3914-9"
   sodipodi:type="arc"
   sodipodi:cx="394"
   sodipodi:cy="221.66843"
   sodipodi:rx="129.5034"
   sodipodi:ry="13.631938"
   sodipodi:start="0.17453293"
   sodipodi:end="2.9670597"
   sodipodi:open="true"
   sodipodi:arc-type="arc"
   d="M 521.53595,224.03559 A 129.5034,13.631938 0 0 1 394,235.30036 129.5034,13.631938 0 0 1 266.46405,224.03559" /><path
   style="opacity:1;fill:none;stroke:#fbfaff;stroke-width:7;stroke-linecap:round;stroke-linejoin:bevel;stroke-dasharray:none;stroke-opacity:1"
   d="m 265.36162,139.0547 c 0,0 0,432.31972 0,461.71938 0,29.39967 -9.63924,67.71563 58.55835,67.71563 68.1976,0 73.98114,0 73.98114,0"
   id="path4103" /><path
   style="fill:none;stroke:#fbfaff;stroke-width:7;stroke-linecap:round;stroke-linejoin:round;stroke-dasharray:none;stroke-opacity:1"
   d="m 522.645,139.05469 c 0,0 0,432.31972 0,461.71938 0,29.39967 9.63924,67.71563 -58.55835,67.71563 -68.1976,0 -73.98114,0 -73.98114,0"
   id="path4103-9" /><path
   style="opacity:1;fill:none;stroke:#fbfaff;stroke-width:7;stroke-linecap:round;stroke-linejoin:bevel;stroke-dasharray:none;stroke-opacity:1"
   d="m 394,625.35414 v 42.89459"
   id="path4105" /><path
   style="opacity:1;fill:none;stroke:#fbfaff;stroke-width:7.01725;stroke-linecap:round;stroke-linejoin:bevel;stroke-dasharray:none;stroke-opacity:1"
   id="path4138"
   sodipodi:type="arc"
   sodipodi:cx="394.00003"
   sodipodi:cy="571.66785"
   sodipodi:rx="128.47241"
   sodipodi:ry="52.295296"
   sodipodi:start="0"
   sodipodi:end="3.1415927"
   sodipodi:open="true"
   sodipodi:arc-type="arc"
   d="m 522.47244,571.66785 a 128.47241,52.295296 0 0 1 -64.23621,45.28905 128.47241,52.295296 0 0 1 -128.47241,0 128.47241,52.295296 0 0 1 -64.2362,-45.28905" /><g
   id="g4230"
   inkscape:path-effect="#path-effect4232"
   class="UnoptimicedTransforms"
   style="stroke:#fbfaff;stroke-opacity:1"><path
     style="fill:none;stroke:#fbfaff;stroke-width:7;stroke-linecap:round;stroke-linejoin:round;stroke-dasharray:none;stroke-opacity:1;paint-order:normal"
     d="m 265.43379,277.03895 c 0,0 77.78724,-26.15385 128.56621,39.96105 m 128.56621,-39.96105 c 0,0 -77.78724,-26.15385 -128.56621,39.96105"
     id="path4142"
     sodipodi:nodetypes="cc"
     inkscape:original-d="m 265.43379,277.03895 c 0,0 77.78724,-26.15385 128.56621,39.96105" /><path
     style="opacity:1;fill:none;stroke:#fbfaff;stroke-width:7;stroke-linecap:round;stroke-linejoin:round;stroke-dasharray:none;stroke-opacity:1;paint-order:normal"
     d="m 379.34567,301.23564 v 94.74196 c 0,0 -34.07984,-15.67672 -41.23661,33.05745 9.88315,-31.35345 31.35345,-8.17916 37.14703,0 m 33.39824,-127.79941 v 94.74196 c 0,0 34.07984,-15.67672 41.23661,33.05745 -9.88315,-31.35345 -31.35345,-8.17916 -37.14703,0"
     id="path4201"
     sodipodi:nodetypes="cccc"
     inkscape:original-d="m 379.34567,301.23564 v 94.74196 c 0,0 -34.07984,-15.67672 -41.23661,33.05745 9.88315,-31.35345 31.35345,-8.17916 37.14703,0" /><path
     style="opacity:1;fill:none;stroke:#fbfaff;stroke-width:7;stroke-linecap:round;stroke-linejoin:round;stroke-dasharray:none;stroke-opacity:1;paint-order:normal"
     d="m 377.68647,361.21616 c 0,0 -26.24148,-65.7741 -87.24441,-53.16455 14.22102,53.07356 67.81889,61.00292 87.24441,53.16455 z m 32.62706,0 c 0,0 26.24148,-65.7741 87.24441,-53.16455 -14.22102,53.07356 -67.81889,61.00292 -87.24441,53.16455 z"
     id="path4213"
     inkscape:original-d="m 377.68647,361.21616 c 0,0 -26.24148,-65.7741 -87.24441,-53.16455 14.22102,53.07356 67.81889,61.00292 87.24441,53.16455 z" /><path
     style="opacity:1;fill:none;stroke:#fbfaff;stroke-width:7;stroke-linecap:round;stroke-linejoin:round;stroke-dasharray:none;stroke-opacity:1;paint-order:normal"
     d="m 394,445.05258 c -80.76923,0 -64.85237,-46.35546 -106.32912,-66.7965 -9.03211,-4.45131 -19.7663,18.06232 -16.01752,65.09251 3.74879,47.03018 29.30174,62.27942 37.14703,62.36611 61.68451,0.6816 49.07498,-23.17429 85.19961,-23.17429 m 0,-37.48783 c 80.76923,0 64.85237,-46.35546 106.32912,-66.7965 9.03211,-4.45131 19.7663,18.06232 16.01752,65.09251 -3.74879,47.03018 -29.30174,62.27942 -37.14703,62.36611 C 417.5151,506.3963 430.12463,482.54041 394,482.54041"
     id="path4215"
     sodipodi:nodetypes="csssc"
     inkscape:original-d="m 394,445.05258 c -80.76923,0 -64.85237,-46.35546 -106.32912,-66.7965 -9.03211,-4.45131 -19.7663,18.06232 -16.01752,65.09251 3.74879,47.03018 29.30174,62.27942 37.14703,62.36611 61.68451,0.6816 49.07498,-23.17429 85.19961,-23.17429" /><path
     style="opacity:1;fill:none;stroke:#fbfaff;stroke-width:7;stroke-linecap:round;stroke-linejoin:round;stroke-dasharray:none;stroke-opacity:1;paint-order:normal"
     d="m 306.7556,395.29601 c -8.17916,35.78384 -25.21909,61.34372 23.51509,70.54528 M 481.2444,395.29601 c 8.17916,35.78384 25.21909,61.34372 -23.51509,70.54528"
     id="path4217"
     sodipodi:nodetypes="cc"
     inkscape:original-d="m 306.7556,395.29601 c -8.17916,35.78384 -25.21909,61.34372 23.51509,70.54528" /><path
     style="opacity:1;fill:none;stroke:#fbfaff;stroke-width:7;stroke-linecap:round;stroke-linejoin:round;stroke-dasharray:none;stroke-opacity:1;paint-order:normal"
     d="m 307.0964,458.00292 c 0,0 -13.97274,15.67673 1.36319,47.71178 M 480.9036,458.00292 c 0,0 13.97274,15.67673 -1.36319,47.71178"
     id="path4219"
     sodipodi:nodetypes="cc"
     inkscape:original-d="m 307.0964,458.00292 c 0,0 -13.97274,15.67673 1.36319,47.71178" /><path
     style="opacity:1;fill:none;stroke:#fbfaff;stroke-width:7;stroke-linecap:round;stroke-linejoin:round;stroke-dasharray:none;stroke-opacity:1;paint-order:normal"
     d="M 265.17819,519.68744 C 264.49659,584.09835 326.52191,550.0185 394,550.0185 M 522.82181,519.68744 C 523.50341,584.09835 461.47809,550.0185 394,550.0185"
     id="path4221"
     sodipodi:nodetypes="cc"
     inkscape:original-d="M 265.17819,519.68744 C 264.49659,584.09835 326.52191,550.0185 394,550.0185" /></g><path
   style="opacity:1;fill:none;stroke:#fbfaff;stroke-width:7.3;stroke-linecap:round;stroke-linejoin:round;stroke-dasharray:none;stroke-opacity:1;paint-order:normal"
   id="path5052"
   sodipodi:type="arc"
   sodipodi:cx="394"
   sodipodi:cy="138.11128"
   sodipodi:rx="128.37811"
   sodipodi:ry="17.873598"
   sodipodi:start="3.1415927"
   sodipodi:end="0"
   sodipodi:arc-type="arc"
   d="M 265.62189,138.11128 A 128.37811,17.873598 0 0 1 394,120.23768 a 128.37811,17.873598 0 0 1 128.37811,17.8736"
   sodipodi:open="true" /><path
   style="fill:none;stroke:#fbfaff;stroke-width:4;stroke-linecap:round;stroke-linejoin:round;stroke-dasharray:none;stroke-opacity:1;paint-order:normal"
   id="path5052-4"
   sodipodi:type="arc"
   sodipodi:cx="394"
   sodipodi:cy="-137.40594"
   sodipodi:rx="128.37811"
   sodipodi:ry="17.873598"
   sodipodi:start="3.1415927"
   sodipodi:end="0"
   sodipodi:arc-type="arc"
   d="M 265.62189,-137.40594 A 128.37811,17.873598 0 0 1 394,-155.27954 a 128.37811,17.873598 0 0 1 128.37811,17.8736"
   sodipodi:open="true"
   transform="scale(1,-1)" /></svg>
