<?xml version="1.0" encoding="utf-8"?>
<!-- Generator: Adobe Illustrator 19.0.0, SVG Export Plug-In . SVG Version: 6.00 Build 0)  -->
<svg version="1.1" id="Layer_1" xmlns="http://www.w3.org/2000/svg" xmlns:xlink="http://www.w3.org/1999/xlink" x="0px" y="0px"
	 viewBox="-255 334 100 125" style="enable-background:new -255 334 100 125;" xml:space="preserve">
<style type="text/css">
	.st0{fill:#FFFFFF;}
	.st1{fill:#FFFFFF;stroke:#FFFFFF;stroke-width:1.5;stroke-miterlimit:10;}
</style>
<title>100icons20172</title>
<path class="st0" d="M-196.1,427.4h-17.6c-4.6,0-8.3-3.7-8.3-8.3v-59.6c0-0.5,0.4-0.9,0.9-0.9l0,0c0.5,0,0.8,0.4,0.8,0.9v59.6
	c0,3.7,3,6.6,6.6,6.6h17.6c3.7,0,6.6-3,6.6-6.6v-59.6c0-0.5,0.4-0.9,0.8-0.9l0,0c0.5,0,0.9,0.4,0.9,0.9v59.6
	C-187.8,423.7-191.5,427.4-196.1,427.4z"/>
<path class="st0" d="M-204.9,367.6c-17.1,0-17.1-1.9-17.1-2.7c0-0.5,0.4-0.9,0.8-0.9c0.3,0,0.6,0.2,0.8,0.5c1,0.6,6.8,1.3,15.5,1.3
	c8.7,0,14.5-0.8,15.5-1.3c0.2-0.4,0.7-0.6,1.1-0.4c0.3,0.1,0.5,0.4,0.5,0.8C-187.8,365.7-187.8,367.6-204.9,367.6z M-189.5,365
	L-189.5,365z M-220.3,365L-220.3,365z"/>
<path class="st0" d="M-204.9,372.3c-17.1,0-17.1-1.9-17.1-2.7c0-0.5,0.4-0.9,0.8-0.9c0.3,0,0.6,0.2,0.8,0.5c1,0.6,6.8,1.3,15.5,1.3
	c8.7,0,14.5-0.8,15.5-1.3c0.2-0.4,0.7-0.6,1.1-0.4c0.3,0.1,0.5,0.4,0.5,0.8C-187.8,370.4-187.8,372.3-204.9,372.3z M-189.5,369.7
	L-189.5,369.7z M-220.3,369.7L-220.3,369.7z"/>
<path class="st0" d="M-204.9,422.1c-9.5,0-17.1-4.7-17.1-10.5c0-0.5,0.4-0.9,0.8-0.9c0.5,0,0.9,0.4,0.9,0.9c0,4.8,6.9,8.8,15.4,8.8
	s15.4-3.9,15.4-8.8c0-0.5,0.4-0.9,0.8-0.9c0.4,0,0.9,0.4,0.9,0.8l0,0C-187.8,417.4-195.4,422.1-204.9,422.1z"/>
<path class="st0" d="M-192.9,413.4c-1.7-0.1-3.4-0.2-5.1-0.5c-2.5-0.4-5-0.6-7.6-0.7c-2.5,0-5,0.3-7.5,0.7c-3.4,0.5-6.1,0.9-7.7-0.5
	c-1-1-1.5-2.3-1.3-3.7c0-0.5,0.4-0.9,0.8-0.9c0.5,0,0.9,0.4,0.9,0.9c-0.1,0.9,0.2,1.8,0.7,2.4c1,0.9,3.4,0.5,6.4,0.1
	c2.5-0.4,5.1-0.7,7.7-0.7c2.6,0.1,5.2,0.3,7.8,0.7c3.4,0.5,6.3,0.9,7.5-0.2c0.6-0.6,0.8-1.5,0.8-2.3c0-0.5,0.4-0.9,0.8-0.9
	c0.4,0,0.9,0.4,0.9,0.8l0,0c0.1,1.3-0.4,2.7-1.3,3.6C-190.2,413.1-191.5,413.5-192.9,413.4z"/>
<path class="st0" d="M-208.9,388.6c-1.9-0.1-3.8-0.7-5.4-1.8c-2.7-1.7-4.3-4.2-4.3-6.2c0-0.3,0.2-0.6,0.5-0.8
	c1.9-0.9,4.8-0.4,7.4,1.4c2.7,1.7,4.3,4.2,4.3,6.2c0,0.3-0.2,0.6-0.5,0.8C-207.5,388.5-208.2,388.6-208.9,388.6z M-207.3,387.4
	L-207.3,387.4z M-216.9,381.2c0.6,1.8,1.8,3.3,3.5,4.2c1.5,1.1,3.4,1.6,5.2,1.5c-0.6-1.8-1.8-3.3-3.5-4.2
	C-213.1,381.5-215,381-216.9,381.2z"/>
<path class="st0" d="M-213.4,401.5c-0.1,0-0.2,0-0.3,0l-2.7-0.9c-0.6-0.2-1.2-0.7-1.4-1.3c-1.2-2.4,0.6-7.5,0.9-8
	c0.2-0.4,0.7-0.7,1.1-0.5s0.7,0.7,0.5,1.1c-0.7,1.9-1.6,5.4-0.9,6.7c0.1,0.2,0.2,0.3,0.4,0.4l2.7,0.9c0.4,0.2,0.6,0.7,0.4,1.1
	C-212.8,401.3-213.1,401.5-213.4,401.5z"/>
<path class="st0" d="M-216.1,405.5c-0.3,0-0.6-0.2-0.8-0.5c-1.6-3.7,0.1-5.6,0.1-5.7c0.3-0.3,0.9-0.3,1.2,0c0.3,0.3,0.3,0.8,0.1,1.1
	c-0.1,0.1-1,1.4,0.1,3.9c0.2,0.4,0,0.9-0.5,1.1l0,0C-215.9,405.5-216,405.5-216.1,405.5z"/>
<path class="st0" d="M-201.2,388.6c-0.7,0-1.4-0.1-2.1-0.4c-0.3-0.1-0.5-0.4-0.5-0.8c0-2.1,1.6-4.5,4.3-6.2c2.7-1.7,5.6-2.3,7.4-1.4
	c0.3,0.1,0.5,0.4,0.5,0.8c0.1,2.1-1.6,4.5-4.3,6.2C-197.4,387.9-199.3,388.5-201.2,388.6z M-202,386.9c1.9,0.2,3.7-0.3,5.2-1.4
	c1.6-0.9,2.9-2.4,3.5-4.2c-1.9-0.2-3.7,0.3-5.2,1.5C-200.2,383.6-201.4,385.1-202,386.9L-202,386.9z"/>
<path class="st0" d="M-196.3,406.7c-1.8,0-3.6-0.6-5.2-1.6c-1.1-0.7-2.3-1.1-3.6-1.3c-1.3,0.2-2.5,0.6-3.5,1.3
	c-2.1,1.3-4.6,1.9-7,1.4c-1.5-0.3-2.8-1.2-3.6-2.5c-2.5-3.8-2.3-10.5-1.7-13.3c0.3-1.4,1.1-1.9,1.6-2c1.7-0.3,3.7,1.8,6.1,5.2
	c1.8,2.1,4.4,3.4,7.2,3.4h1.7c2.8-0.1,5.4-1.3,7.2-3.4c2.1-2.9,4.3-5.5,6.1-5.2c0.6,0.1,1.3,0.5,1.6,2c0.6,2.8,0.8,9.5-1.7,13.3
	c-0.8,1.3-2.1,2.2-3.6,2.5C-195.1,406.6-195.7,406.7-196.3,406.7z M-204.5,402.1c1.3,0.3,2.6,0.8,3.8,1.5c1.7,1.2,3.8,1.6,5.9,1.2
	c1-0.2,1.9-0.8,2.4-1.7c2.1-3.1,2.1-9.4,1.5-12c-0.1-0.5-0.3-0.7-0.3-0.7c-0.2-0.1-1.2,0.1-4.4,4.5c-2.1,2.6-5.3,4.1-8.6,4.1h-1.6
	c-3.3-0.1-6.5-1.6-8.6-4.1c-3.2-4.4-4.1-4.5-4.4-4.5c0,0-0.2,0.1-0.3,0.7c-0.6,2.6-0.6,8.8,1.5,12c0.5,0.9,1.4,1.5,2.4,1.7
	c2,0.4,4.2-0.1,5.9-1.2c1.2-0.7,2.5-1.2,3.8-1.5c0.1-0.1,0.3-0.1,0.4-0.1h0.3C-204.8,402.1-204.6,402.1-204.5,402.1z"/>
<path class="st0" d="M-205.1,382.5c-0.6,0-1.2-0.3-1.5-0.8c-4.6-7-14.3-4.3-14.4-4.3c-0.5,0.1-0.9-0.2-1-0.6c-0.1-0.4,0.1-0.8,0.5-1
	c2-0.5,4-0.7,6.1-0.6c4.1,0.1,7.9,2.1,10.2,5.5c0.1,0.1,0.1,0.2,0.2,0c2.3-3.4,6.1-5.5,10.2-5.6c2-0.1,4.1,0.1,6.1,0.6
	c0.4,0.2,0.7,0.6,0.5,1.1c-0.1,0.4-0.6,0.6-1,0.5c-0.1,0-9.8-2.7-14.4,4.3C-203.9,382.2-204.4,382.5-205.1,382.5z"/>
<path class="st0" d="M-196.8,401.5c-0.5,0-0.9-0.4-0.9-0.8c0-0.4,0.2-0.7,0.6-0.8l2.7-0.9c0.2-0.1,0.3-0.2,0.4-0.4
	c0.6-1.3-0.2-4.8-0.9-6.7c-0.2-0.4,0.1-0.9,0.5-1.1s0.9,0.1,1.1,0.5l0,0c0.2,0.6,2,5.6,0.9,8c-0.3,0.6-0.7,1.1-1.4,1.3l-2.7,0.9
	C-196.6,401.5-196.7,401.5-196.8,401.5z"/>
<path class="st0" d="M-194.1,405.5c-0.1,0-0.2,0-0.3-0.1c-0.4-0.2-0.6-0.7-0.4-1.1l0,0c1.1-2.6,0.2-3.9,0.1-3.9
	c-0.3-0.4-0.2-0.9,0.1-1.2c0.4-0.3,0.9-0.3,1.2,0.1c0.1,0.1,1.8,2.1,0.1,5.7C-193.4,405.3-193.7,405.5-194.1,405.5z"/>
<path class="st0" d="M-207.3,397c-0.3,0-0.6-0.1-0.7-0.4c-0.4-0.7-1.1-1.2-1.9-1.4c-0.4,0-0.9,0.1-1.2,0.5c-0.3,0.3-0.9,0.3-1.2-0.1
	c-0.1-0.1-0.2-0.3-0.2-0.5c-0.1-1.2,0.3-2.3,1.1-3.2c1.2-1,2.7-1.4,4.2-1c0.5,0,0.8,0.4,0.8,0.9s-0.4,0.8-0.9,0.8h-0.1
	c-1-0.3-2-0.1-2.8,0.5c-0.1,0.1-0.2,0.2-0.3,0.3c0.3,0,0.5,0,0.8,0c1.3,0.3,2.4,1.1,3.1,2.2c0.3,0.4,0.2,0.9-0.2,1.2l0,0
	C-206.9,397-207.1,397-207.3,397z"/>
<path class="st0" d="M-202.8,397c-0.5,0-0.8-0.4-0.8-0.9c0-0.2,0-0.3,0.1-0.5c0.7-1.1,1.8-1.9,3.1-2.1c0.3,0,0.5,0,0.8,0
	c-0.1-0.1-0.2-0.2-0.3-0.3c-0.8-0.6-1.8-0.8-2.8-0.5c-0.5,0.1-0.9-0.2-1-0.7s0.2-0.9,0.7-1h0.1c1.5-0.4,3.1,0,4.2,1
	c0.8,0.9,1.2,2,1.1,3.2c-0.1,0.5-0.5,0.8-0.9,0.7c-0.2,0-0.3-0.1-0.5-0.2c-0.3-0.3-0.7-0.5-1.2-0.5c-0.8,0.2-1.4,0.7-1.9,1.4
	C-202.2,396.9-202.5,397-202.8,397z"/>
<path class="st0" d="M-203.1,392.7c-0.5,0-0.8-0.4-0.8-0.9v-11.5c0-0.5,0.4-0.9,0.8-0.9c0.5,0,0.9,0.4,0.9,0.9v11.5
	C-202.2,392.3-202.6,392.7-203.1,392.7L-203.1,392.7z"/>
<path class="st0" d="M-206.9,392.7c-0.5,0-0.8-0.4-0.8-0.9l0,0v-11.5c0-0.5,0.4-0.9,0.8-0.9c0.5,0,0.9,0.4,0.9,0.9v11.5
	C-206.1,392.3-206.4,392.7-206.9,392.7L-206.9,392.7z"/>
<path class="st0" d="M-204.9,427.4c-0.5,0-0.9-0.4-0.9-0.8l0,0v-5.3c0-0.5,0.4-0.9,0.8-0.9c0.5,0,0.9,0.4,0.9,0.9v5.3
	C-204.1,427-204.4,427.4-204.9,427.4z"/>
<path class="st1" d="M-188.5,359.1c0,1-7.4,1.9-16.6,1.9"/>
<path class="st1" d="M-221.3,359.1c0,1,7.3,1.9,16.3,1.9"/>
<path class="st1" d="M-221.3,359.2c0-1,7.4-1.8,16.6-1.8"/>
<path class="st1" d="M-188.5,359.3c0-1-7.3-1.9-16.3-1.9"/>
</svg>
