<?xml version="1.0" encoding="UTF-8" standalone="no"?>
<svg
   version="1.1"
   viewBox="-5 -10 700 700"
   id="svg1"
   sodipodi:docname="toddy.svg"
   width="700"
   height="700"
   inkscape:version="1.4 (86a8ad7, 2024-10-11)"
   xmlns:inkscape="http://www.inkscape.org/namespaces/inkscape"
   xmlns:sodipodi="http://sodipodi.sourceforge.net/DTD/sodipodi-0.dtd"
   xmlns="http://www.w3.org/2000/svg"
   xmlns:svg="http://www.w3.org/2000/svg">
  <defs
     id="defs1" />
  <sodipodi:namedview
     id="namedview1"
     pagecolor="#505050"
     bordercolor="#eeeeee"
     borderopacity="1"
     inkscape:showpageshadow="0"
     inkscape:pageopacity="0"
     inkscape:pagecheckerboard="0"
     inkscape:deskcolor="#505050"
     inkscape:zoom="1.538612"
     inkscape:cx="224.55304"
     inkscape:cy="327.89294"
     inkscape:window-width="2560"
     inkscape:window-height="1377"
     inkscape:window-x="1072"
     inkscape:window-y="799"
     inkscape:window-maximized="1"
     inkscape:current-layer="svg1" />
  <style
     type="text/css"
     id="style1">
        .st0 {
            fill: #FFFFFF;
        }
    </style>
  <path
     class="st0"
     d="m 360.74783,437.63166 c 13.71742,-2.80779 30.79999,-6.30123 38.19422,-27.34921 l 0.40724,-1.15742 c 1.15742,-3.15073 3.98662,-10.95253 6.66557,-20.79065 15.90342,-2.46486 78.18927,-13.18133 101.83261,-33.20051 17.5325,-14.85321 26.85596,-72.57606 18.47571,-114.3922 -5.9369,-29.59942 -19.54732,-48.56839 -39.39478,-54.86962 -16.2897,-5.14403 -48.67542,3.04356 -63.67624,7.41618 1.02881,-29.42823 1.60752,-84.17001 1.62897,-84.83393 0,-4.56532 0,-18.4543 -132.15906,-18.4543 C 160.563,90 160.563,103.8886 160.563,108.64689 c 0.38579,10.37365 9.47379,254.62798 25.93469,301.59089 7.37339,21.04744 24.45541,24.54154 38.19423,27.34922 13.76021,2.80779 20.42633,4.67248 21.28339,16.05375 2.35769,31.07871 3.53651,65.34973 -12.60301,78.6172 -7.93031,6.51577 -20.64032,9.02331 -31.8502,11.23126 -14.01755,2.76494 -27.28503,5.37981 -27.92756,16.69683 -0.30008,5.27264 1.30744,9.81673 4.75825,13.50287 C 186.3473,582.15529 205.72342,590 292.74506,590 c 86.99585,0 106.37581,-7.84471 114.37032,-16.31109 3.47221,-3.68658 5.07972,-8.20905 4.75824,-13.50287 -0.66442,-11.27406 -13.50287,-14.21013 -27.0919,-17.3613 -10.65238,-2.4434 -22.67652,-5.20833 -30.56404,-11.70259 -17.40411,-14.31768 -16.76104,-51.07594 -14.72482,-77.50334 0.85733,-11.38106 7.50178,-13.24608 21.30479,-16.05376 z m 52.10478,-327.37412 c -9.32345,2.20762 -37.25156,5.87269 -120.13713,5.87269 -82.86416,0 -110.78733,-3.64367 -120.13712,-5.85129 6.34403,-2.78634 30.71439,-9.23786 120.13712,-9.23786 89.35525,0 113.76676,6.45158 120.13713,9.23786 z m -65.6296,429.37675 c 9.88092,8.12345 23.2768,11.18847 35.0864,13.93195 7.78052,1.77898 18.41151,4.24384 18.6041,7.30863 0.12862,2.25054 -0.40724,3.8366 -1.80038,5.3155 -10.86693,11.5314 -65.90943,12.86034 -106.37581,12.86034 -40.46638,0 -95.52808,-1.32889 -106.39776,-12.86034 -1.3932,-1.4789 -1.929,-3.06496 -1.80038,-5.3155 0.17146,-2.85064 11.5528,-5.10117 19.09738,-6.55856 12.47407,-2.46486 26.64197,-5.25119 36.71549,-13.52427 20.19039,-16.61068 19.26858,-52.53327 16.5893,-87.9176 -1.52177,-20.12617 -17.33992,-23.36238 -30.04993,-25.95607 -12.71001,-2.59369 -24.71275,-5.03687 -30.02852,-20.21178 -14.40328,-41.08802 -23.3838,-249.91467 -25.03428,-291.023 16.73964,3.858 58.51301,5.9583 120.88335,5.9583 62.62823,0 104.4883,-2.10047 121.09734,-6.00164 -0.21432,17.74703 -0.87879,64.17002 -1.84329,84.96012 l -0.38579,7.93031 7.56599,-2.46485 c 13.01014,-4.24384 49.96156,-14.29628 64.42795,-9.70918 19.97584,6.32262 28.39944,28.82795 31.95719,46.57498 8.61618,43.10283 -2.78634,93.66245 -14.78902,103.84625 -24.19862,20.49051 -99.12754,31.1429 -99.87925,31.2499 l -3.64367,0.49295 -0.90019,3.57936 c -2.78634,10.95253 -6.04444,19.91164 -7.26584,23.27679 l -0.47155,1.30744 c -5.33696,15.17474 -17.31797,17.61808 -30.02853,20.21177 -12.71,2.59347 -28.50643,5.8085 -30.04992,25.95608 -2.35769,31.29269 -2.37909,69.44299 18.73306,86.80374 z M 483.82103,331.83754 c 11.16707,-8.10205 12.06693,-38.36594 10.84554,-62.32641 -0.64302,-12.6244 -2.59347,-50.99034 -27.39204,-53.96921 -29.49244,-3.53651 -54.16239,14.85321 -55.19339,15.64662 l -1.99331,1.50036 -0.17146,2.5077 c -0.79303,12.00273 -1.3932,24.3912 -1.99331,36.9086 -1.15742,24.84113 -2.37909,50.53987 -5.35835,73.9478 l -0.85734,6.7945 6.81591,-0.64301 c 2.22908,-0.21432 54.63373,-5.35835 75.29764,-20.36157 z M 418.89925,272.6387 c 0.55725,-11.5314 1.09311,-22.95525 1.80038,-34.07897 5.95829,-3.9009 24.56295,-14.48888 45.28887,-12.13113 10.35226,1.24313 16.3325,15.92481 17.72564,43.61696 1.60752,31.99997 -2.16477,49.854 -6.34402,52.89761 -14.2321,10.35226 -48.4823,15.66802 -63.07817,17.53249 2.44339,-21.88365 3.53652,-45.22464 4.60818,-67.85726 z"
     id="path1"
     style="stroke-width:5.48696" />
</svg>
