<?xml version="1.0" encoding="utf-8"?>
<!-- Generator: Adobe Illustrator 19.0.0, SVG Export Plug-In . SVG Version: 6.00 Build 0)  -->
<svg version="1.1" id="Layer_1" xmlns="http://www.w3.org/2000/svg" xmlns:xlink="http://www.w3.org/1999/xlink" x="0px" y="0px"
	 viewBox="44 47 700 700" style="enable-background:new 44 47 700 700;" xml:space="preserve">
<style type="text/css">
	.st0{fill:#FFFFFF;}
</style>
<g>
	<path class="st0" d="M571.8,161.3c0-5.8,0-14.5-177.8-14.5v7.2l-0.1-7.2h0c-177.7,0-177.7,8.7-177.6,13.6c-0.3,2-8.2,49.3,9.2,69.9
		c12.4,14.5,23.7,17.8,33.7,20.8c7.2,2.1,13.4,3.9,19.6,9.8c10.4,9.8,19,43.9,25.4,69c12.4,49,41,64.8,54.7,72.4
		c2,1.1,4.5,2.5,4.8,2.7c16.4,26.2,6.7,162.1,3.7,179.8c-1.8,10.3-33.2,17.7-54,22.5c-26.7,6.3-46,10.8-46,23
		c0,12.9,5.8,17,126.7,17c120.8,0,126.5-4.1,126.5-17c0-12.2-19.3-16.7-46-23c-20.8-4.9-52.2-12.3-54-22.5
		c-3-17.7-12.8-153.6,3.4-179.4c0.6-0.6,3.1-2,5.1-3.1c13.7-7.6,42.3-23.4,54.8-72.7c6.3-24.9,14.9-59,25.3-68.8
		c6.2-5.9,12.4-7.7,19.6-9.8c10-2.9,21.3-6.2,33.7-20.8C580,209.6,572,162.3,571.8,161.3L571.8,161.3z M394,158L394,158
		c85,0,127.3,2.2,148.3,4.3c-20.6,2.6-62.7,5.4-148.4,5.4c-85.6,0-127.7-2.8-148.3-5.4C266.7,160.2,309,158,394,158L394,158z
		 M553.9,222.9c-10.2,12-19,14.5-28.3,17.3c-7.8,2.3-15.9,4.7-24.1,12.4c-12.7,12-21.1,45-28.5,74.5c-11.2,44.3-36.9,58.5-49.3,65.4
		c-4.6,2.5-7.3,4-8.9,6.5c-20.3,32.4-6.7,178.8-5.2,187.6c3,17.6,33.2,24.7,62.5,31.6c14,3.3,35.3,8.3,37.5,11.9
		c-5.9,6-80,6-115.8,6c-35.6,0-109.6,0-115.4-5.4c2.1-4.2,23.4-9.1,37.4-12.4c29.2-6.9,59.5-14,62.5-31.6
		c1.5-8.8,15.1-155.3-5.2-187.6c-1.6-2.5-4.3-4-8.9-6.5c-12.3-6.8-38-21-49.3-65.7c-7.4-29.1-15.7-62.1-28.5-74.2
		c-8.2-7.7-16.3-10.1-24.1-12.4c-9.3-2.7-18.1-5.3-28.3-17.3c-10.7-12.6-9.2-42.8-7.2-57.9c0.4-0.1,0.9-0.2,1.4-0.4
		c19.1,5.5,77.7,8.6,165.7,8.6c88,0,146.6-3.1,165.7-8.6c0.6,0.1,1,0.2,1.4,0.4C563.1,179,564.9,210.1,553.9,222.9L553.9,222.9z"/>
</g>
</svg>
