<?xml version="1.0" encoding="utf-8"?>
<!-- Generator: Adobe Illustrator 19.0.0, SVG Export Plug-In . SVG Version: 6.00 Build 0)  -->
<svg version="1.1" id="Layer_1" xmlns="http://www.w3.org/2000/svg" xmlns:xlink="http://www.w3.org/1999/xlink" x="0px" y="0px"
	 viewBox="44 47 700 700" style="enable-background:new 44 47 700 700;" xml:space="preserve">
<style type="text/css">
	.st0{fill:#FFFFFF;}
</style>
<g>
	<path class="st0" d="M394,146.8c-177.8,0-177.8,8.7-177.8,14.5v1.8l1,1.5c1.2,1.7,123.2,174,144.2,207.6
		c16.3,26,8.9,194.9,5.9,212.6c-1.8,10.3-33.2,17.7-54,22.5c-26.7,6.3-46,10.8-46,23c0,12.9,5.8,17,126.5,17h0.2
		c120.8,0,126.5-4.1,126.5-17c0-12.2-19.3-16.7-46-23c-20.8-4.9-52.2-12.3-54-22.5c-3-17.7-10.4-186.6,5.9-212.6
		c21-33.6,143-205.8,144.2-207.6l1-1.5l0-1.8C571.8,155.5,571.8,146.8,394,146.8L394,146.8z M542.4,162.2
		c-20.6,2.6-62.7,5.4-148.4,5.4c-85.7,0-127.8-2.8-148.4-5.4c21.1-2,63.5-4.2,148.4-4.2S521.3,160.2,542.4,162.2z M417,366.1
		c-19.8,31.6-9.5,208-7.4,220.4c3,17.6,33.2,24.7,62.5,31.6c14.1,3.3,35.3,8.3,37.5,11.9c-5.9,6-80,6-115.5,6h-0.2
		c-35.6,0-109.6,0-115.4-5.4c2.1-4.2,23.3-9.1,37.4-12.4c29.2-6.9,59.4-14,62.5-31.6c2.1-12.5,12.4-188.8-7.4-220.4
		C352,335.9,255.7,199.4,231.7,165.5c22.1,4.9,79.1,7.7,162.3,7.7s140.2-2.8,162.3-7.7C532.3,199.4,436,335.9,417,366.1L417,366.1z"
		/>
</g>
</svg>
