<?xml version="1.0" encoding="utf-8"?>
<!-- Generator: Adobe Illustrator 19.0.0, SVG Export Plug-In . SVG Version: 6.00 Build 0)  -->
<svg version="1.1" id="Layer_1" xmlns="http://www.w3.org/2000/svg" xmlns:xlink="http://www.w3.org/1999/xlink" x="0px" y="0px"
	 viewBox="44 47 700 700" style="enable-background:new 44 47 700 700;" xml:space="preserve">
<style type="text/css">
	.st0{fill:#FFFFFF;}
</style>
<g id="XMLID_2_">
	<path id="XMLID_3_" class="st0" d="M560.1,121.5c-3.4-5-22.5-12-172.5-12v8.3l-0.1-8.3h-0.1c-149.9,0-169,7.1-172.4,12
		c-8.3,8.7-73.3,80.4-26,141.9c24.7,32.1,76.1,59,113.6,78.7c19.6,10.3,40,20.9,43.7,26.3c20.6,29.9,11.3,223.9,7.4,244.3
		c-2.2,11.8-42,20.3-68.3,25.9c-33.8,7.2-58.2,12.4-58.2,26.4c0,14.9,7.3,19.6,160.4,19.6c152.8,0,160.1-4.7,160.1-19.6
		c0-14-24.4-19.2-58.2-26.4c-26.3-5.6-66.1-14.1-68.3-25.9c-3.8-20.4-13.2-214.5,7.4-244.3c3.7-5.4,24-16,43.7-26.3
		c37.5-19.7,88.9-46.6,113.6-78.7C633.5,201.9,568.4,130.2,560.1,121.5L560.1,121.5z M387.6,122.3L387.6,122.3
		c99.3,0,138.2,3.4,153.3,5.7c-17.1,2.5-57.4,5.7-153.2,5.7c-95.8,0-136.2-3.2-153.2-5.7C249.4,125.7,288.3,122.3,387.6,122.3
		L387.6,122.3z M574.5,256c-22.9,29.7-72.7,55.8-109.1,74.9c-27.5,14.4-43.3,22.9-48.6,30.6c-25,36.3-12.1,239-9.4,253.3
		c3.8,20.2,42,28.4,79,36.3c17.8,3.8,44.6,9.5,47.5,13.6c-7.5,6.9-101.2,6.9-146.5,6.9c-45,0-138.7,0-146-6.3
		c2.7-4.8,29.5-10.5,47.3-14.3c37-7.9,75.2-16,79-36.3c2.7-14.3,15.7-217-9.4-253.3c-5.3-7.7-21.1-16.2-48.6-30.6
		c-36.4-19.1-86.2-45.2-109.1-74.9c-37.9-49.3,10.4-109.6,22.8-123.6c19,5,76,7.8,164,7.8s145-2.7,164-7.8
		C564.1,146.4,612.5,206.7,574.5,256L574.5,256z"/>
</g>
</svg>
