<?xml version="1.0" encoding="UTF-8" standalone="no"?>
<!-- Generator: Adobe Illustrator 19.0.0, SVG Export Plug-In . SVG Version: 6.00 Build 0)  -->

<svg version="1.1" id="Layer_1" xmlns="http://www.w3.org/2000/svg" xmlns:xlink="http://www.w3.org/1999/xlink" x="0px" y="0px"
	 viewBox="44 47 700 700" style="enable-background:new 44 47 700 700;" xml:space="preserve">
<style
   type="text/css"
   id="style13">
	.st0{fill:#FFFFFF;}
</style>
<g
   id="g17"
   transform="translate(-0.05)">
	<path
   class="st0"
   d="m 547.5,215.8 c 0,-5.7 0,-13.5 -153.5,-13.5 -153.5,0 -153.5,7.8 -153.5,13.5 l 0.1,348.1 c 0,8.4 15,27.8 153.5,27.8 138.6,0 153.5,-19.4 153.5,-27.8 z m -295.9,6.5 c 16.6,4.8 66,7.3 142.3,7.3 76.3,0 125.7,-2.6 142.3,-7.3 l 0.1,262.1 c -5.7,4 -33.3,17.7 -142.3,17.7 -108.6,0 -137,-14.2 -142.4,-17.7 z m 277.8,-4.1 c -13.6,2.5 -48.1,5.8 -135.4,5.8 -87.3,0 -121.8,-3.4 -135.4,-5.8 14.2,-2 49.3,-4.7 135.4,-4.7 86.1,0 121.2,2.7 135.4,4.7 z M 394.1,580.5 c -121.8,0 -140.1,-15 -142.3,-17.7 v -65.7 c 15.3,7 52.5,16.3 142.4,16.3 89.7,0 126.9,-9.2 142.3,-16.2 v 65.6 c -2.4,2.6 -20.7,17.7 -142.4,17.7 z"
   id="path15" />
</g>
<g
   style="fill:#ffffff"
   id="g137"
   transform="matrix(17.195458,0,0,17.195458,265.03364,246.18372)"><path
     fill-rule="evenodd"
     clip-rule="evenodd"
     d="m 5.07505,4.10001 c 0,-1.18898 1.18222,-2.17499 2.425,-2.17499 1.24278,0 2.425,0.98601 2.425,2.17499 0,1.0986 -0.55723,1.61435 -1.30651,2.27883 L 8.58757,6.4063 C 7.84481,7.06467 6.92505,7.87995 6.92505,9.5 c 0,0.31757 0.25743,0.575 0.575,0.575 0.31756,0 0.575,-0.25743 0.575,-0.575 0,-1.08483 0.5544,-1.59377 1.30651,-2.26075 L 9.40238,7.22079 C 10.1496,6.55829 11.075,5.73775 11.075,4.10001 c 0,-1.97244 -1.85631,-3.324986 -3.57495,-3.324986 -1.71865,0 -3.575,1.352546 -3.575,3.324986 0,0.31757 0.25744,0.575 0.575,0.575 0.31756,0 0.575,-0.25743 0.575,-0.575 z m 2.425,9.25749 c 0.48325,0 0.875,-0.3918 0.875,-0.875 0,-0.4833 -0.39175,-0.875 -0.875,-0.875 -0.48325,0 -0.875,0.3917 -0.875,0.875 0,0.4832 0.39175,0.875 0.875,0.875 z"
     fill="#000000"
     id="path128"
     style="fill:#ffffff" /></g></svg>
