<?xml version="1.0" encoding="utf-8"?>
<!-- Generator: Adobe Illustrator 19.0.0, SVG Export Plug-In . SVG Version: 6.00 Build 0)  -->
<svg version="1.1" id="Layer_1" xmlns="http://www.w3.org/2000/svg" xmlns:xlink="http://www.w3.org/1999/xlink" x="0px" y="0px"
	 viewBox="44 47 700 700" style="enable-background:new 44 47 700 700;" xml:space="preserve">
<style type="text/css">
	.st0{fill:#FFFFFF;}
</style>
<g>
	<path class="st0" d="M453.9,608.5c-14-3.8-31.4-8.6-33.7-14.7c-10.6-28.1-8-152.3,1.3-172.8c7.4-16.4,19-23.7,35-33.7
		c7.9-4.9,16.8-10.5,26.5-18c34.1-26.4,46.4-66.9,35.5-117.1c-12.6-57.9-28.1-98.2-30.6-104.4l-0.1-1.3l-1.7-1.7
		c-2.1-2.1-7.7-7.7-92.2-7.7c-84.5,0-90.1,5.6-92.2,7.7l-1.8,1.9v1.2c-2.7,6.9-18.1,46.9-30.5,104.2c-10.9,50.2,1.4,90.7,35.5,117.1
		c9.7,7.5,18.6,13.1,26.5,18c16.1,10.1,27.7,17.3,35,33.7c9.3,20.6,11.9,144.7,1.3,172.8c-2.3,6.1-19.7,10.9-33.7,14.7
		c-21.8,6-44.3,12.2-45.1,28.5c-0.1,2.8,0.1,6.5,3.2,9.7c6.4,6.7,23.9,10.1,101.8,10.1c77.9,0,95.4-3.4,101.8-10.1
		c3.1-3.2,3.3-6.9,3.2-9.7C498.2,620.7,475.7,614.5,453.9,608.5L453.9,608.5z M474.4,152c-9.6,1.4-31.4,3.2-80.4,3.2
		c-49,0-70.8-1.8-80.4-3.2c7.8-1.5,28.2-3.7,80.4-3.7C446.2,148.3,466.6,150.5,474.4,152z M487.8,639c-2.8,4.5-34.4,6.8-93.8,6.8
		c-59.4,0-90.9-2.3-93.7-6.7c0,0-0.1-0.3-0.1-1.4c0.4-8.2,20.6-13.8,36.9-18.2c19-5.2,36.9-10.1,41.2-21.6
		c11.5-30.4,8.5-159.1-1.5-181.4c-8.8-19.5-22.2-27.9-39.3-38.6c-7.7-4.8-16.3-10.2-25.6-17.4c-30.9-23.9-41.5-59.6-31.4-105.9
		c10.6-48.7,23.2-84.6,28.2-97.8c15.1,3.3,53.1,4.1,85.4,4.1c32.3,0,70.3-0.8,85.4-4.1c5,13.2,17.6,49.1,28.2,97.8
		c10.1,46.3-0.5,81.9-31.4,105.9c-9.3,7.2-17.9,12.6-25.6,17.4c-17.1,10.7-30.5,19.1-39.3,38.6c-10,22.3-13,150.9-1.5,181.4
		c4.3,11.4,22.2,16.3,41.2,21.6c16.2,4.5,36.5,10,36.8,18.2C487.8,638.7,487.8,638.9,487.8,639L487.8,639z"/>
</g>
</svg>
